<svg width="5601" height="3736" xmlns="http://www.w3.org/2000/svg" xmlns:xlink="http://www.w3.org/1999/xlink" overflow="hidden"><defs><clipPath id="clip0"><rect x="5353" y="1090" width="5601" height="3736"/></clipPath><clipPath id="clip1"><rect x="5356" y="1094" width="5596" height="3728"/></clipPath><clipPath id="clip2"><rect x="5356" y="1094" width="5596" height="3728"/></clipPath><clipPath id="clip3"><rect x="5356" y="1094" width="5596" height="3728"/></clipPath><clipPath id="clip4"><rect x="5356" y="1094" width="5596" height="3728"/></clipPath><clipPath id="clip5"><rect x="5356" y="1094" width="5596" height="3728"/></clipPath><clipPath id="clip6"><rect x="5356" y="1094" width="5596" height="3728"/></clipPath><clipPath id="clip7"><rect x="5356" y="1094" width="5596" height="3728"/></clipPath><clipPath id="clip8"><rect x="5356" y="1094" width="5596" height="3728"/></clipPath><clipPath id="clip9"><rect x="5356" y="1094" width="5596" height="3728"/></clipPath><clipPath id="clip10"><rect x="5356" y="1094" width="5596" height="3728"/></clipPath><clipPath id="clip11"><rect x="5356" y="1094" width="5596" height="3728"/></clipPath><clipPath id="clip12"><rect x="5356" y="1094" width="5596" height="3728"/></clipPath><clipPath id="clip13"><rect x="5356" y="1094" width="5596" height="3728"/></clipPath><clipPath id="clip14"><rect x="5356" y="1094" width="5596" height="3728"/></clipPath><clipPath id="clip15"><rect x="5356" y="1094" width="5596" height="3728"/></clipPath><clipPath id="clip16"><rect x="5356" y="1094" width="5596" height="3728"/></clipPath><clipPath id="clip17"><rect x="5356" y="1094" width="5596" height="3728"/></clipPath><clipPath id="clip18"><rect x="5356" y="1094" width="5596" height="3728"/></clipPath><clipPath id="clip19"><rect x="6061" y="1386" width="4784" height="3238"/></clipPath><clipPath id="clip20"><rect x="5356" y="1094" width="5596" height="3728"/></clipPath><clipPath id="clip21"><rect x="5356" y="1094" width="5596" height="3728"/></clipPath><clipPath id="clip22"><rect x="5356" y="1094" width="5596" height="3728"/></clipPath><clipPath id="clip23"><rect x="5356" y="1094" width="5596" height="3728"/></clipPath><clipPath id="clip24"><rect x="5356" y="1094" width="5596" height="3728"/></clipPath><clipPath id="clip25"><rect x="5356" y="1094" width="5596" height="3728"/></clipPath><clipPath id="clip26"><rect x="5356" y="1094" width="5596" height="3728"/></clipPath><clipPath id="clip27"><rect x="5356" y="1094" width="5596" height="3728"/></clipPath><clipPath id="clip28"><rect x="5356" y="1094" width="5596" height="3728"/></clipPath><clipPath id="clip29"><rect x="5356" y="1094" width="5596" height="3728"/></clipPath><clipPath id="clip30"><rect x="5356" y="1094" width="5596" height="3728"/></clipPath><clipPath id="clip31"><rect x="5356" y="1094" width="5596" height="3728"/></clipPath><clipPath id="clip32"><rect x="5356" y="1094" width="5596" height="3728"/></clipPath><clipPath id="clip33"><rect x="5356" y="1094" width="5596" height="3728"/></clipPath><clipPath id="clip34"><rect x="5356" y="1094" width="5596" height="3728"/></clipPath><clipPath id="clip35"><rect x="5356" y="1094" width="5596" height="3728"/></clipPath><clipPath id="clip36"><rect x="5356" y="1094" width="5596" height="3728"/></clipPath><clipPath id="clip37"><rect x="5356" y="1094" width="5596" height="3728"/></clipPath><clipPath id="clip38"><rect x="5356" y="1094" width="5596" height="3728"/></clipPath><clipPath id="clip39"><rect x="5356" y="1094" width="5596" height="3728"/></clipPath><clipPath id="clip40"><rect x="5356" y="1094" width="5596" height="3728"/></clipPath><clipPath id="clip41"><rect x="5356" y="1094" width="5596" height="3728"/></clipPath><clipPath id="clip42"><rect x="5356" y="1094" width="5596" height="3728"/></clipPath><clipPath id="clip43"><rect x="5356" y="1094" width="5596" height="3728"/></clipPath><clipPath id="clip44"><rect x="5356" y="1094" width="5596" height="3728"/></clipPath><clipPath id="clip45"><rect x="5356" y="1094" width="5596" height="3728"/></clipPath><clipPath id="clip46"><rect x="5356" y="1094" width="5596" height="3728"/></clipPath><clipPath id="clip47"><rect x="5356" y="1094" width="5596" height="3728"/></clipPath><clipPath id="clip48"><rect x="5356" y="1094" width="5596" height="3728"/></clipPath><clipPath id="clip49"><rect x="5356" y="1094" width="5596" height="3728"/></clipPath><clipPath id="clip50"><rect x="5356" y="1094" width="5596" height="3728"/></clipPath><clipPath id="clip51"><rect x="5356" y="1094" width="5596" height="3728"/></clipPath><clipPath id="clip52"><rect x="5356" y="1094" width="5596" height="3728"/></clipPath></defs><g clip-path="url(#clip0)" transform="translate(-5353 -1090)"><rect x="5356" y="1095" width="5596" height="3728" fill="#FFFFFF" fill-opacity="1"/><g clip-path="url(#clip1)"><path d="M6061.5 4624.5 10845.5 4624.5M6061.5 4219.64 10845.5 4219.64M6061.5 3814.63 10845.5 3814.63M6061.5 3410.61 10845.5 3410.61M6061.5 3005.6 10845.5 3005.6M6061.5 2600.59 10845.5 2600.59M6061.5 2196.57 10845.5 2196.57M6061.5 1791.56 10845.5 1791.56" stroke="#D9D9D9" stroke-width="3.4375" stroke-linecap="butt" stroke-linejoin="round" stroke-miterlimit="10" stroke-opacity="1" fill="none" fill-rule="nonzero"/></g><g clip-path="url(#clip2)"><path d="M6539.71 1386.5 6539.71 4624.5M7018.73 1386.5 7018.73 4624.5M7496.75 1386.5 7496.75 4624.5M7974.76 1386.5 7974.76 4624.5M8453.78 1386.5 8453.78 4624.5M8931.79 1386.5 8931.79 4624.5M9410.81 1386.5 9410.81 4624.5M9888.83 1386.5 9888.83 4624.5M10367.8 1386.5 10367.8 4624.5M10845.5 1386.5 10845.5 4624.5" stroke="#D9D9D9" stroke-width="3.4375" stroke-linecap="butt" stroke-linejoin="round" stroke-miterlimit="10" stroke-opacity="1" fill="none" fill-rule="nonzero"/></g><g clip-path="url(#clip3)"><path d="M0 0 0.000360892 3238" stroke="#BFBFBF" stroke-width="3.4375" stroke-linecap="butt" stroke-linejoin="round" stroke-miterlimit="10" stroke-opacity="1" fill="none" fill-rule="evenodd" transform="matrix(1 0 0 -1 6061.5 4624.5)"/></g><g clip-path="url(#clip4)"><path d="M6061.5 1386.5 10845.5 1386.5" stroke="#BFBFBF" stroke-width="3.4375" stroke-linecap="butt" stroke-linejoin="round" stroke-miterlimit="10" stroke-opacity="1" fill="none" fill-rule="evenodd"/></g><g clip-path="url(#clip5)"><path d="M8337.84 3143.03C8337.84 3157.94 8325.75 3170.03 8310.84 3170.03 8295.93 3170.03 8283.84 3157.94 8283.84 3143.03 8283.84 3128.12 8295.93 3116.03 8310.84 3116.03 8325.75 3116.03 8337.84 3128.12 8337.84 3143.03Z" stroke="#5DCEAF" stroke-width="3.4375" stroke-linecap="butt" stroke-linejoin="round" stroke-miterlimit="10" stroke-opacity="1" fill="#5DCEAF" fill-rule="nonzero" fill-opacity="1"/><path d="M6805.84 3572.03C6805.84 3586.94 6793.75 3599.03 6778.84 3599.03 6763.93 3599.03 6751.84 3586.94 6751.84 3572.03 6751.84 3557.12 6763.93 3545.03 6778.84 3545.03 6793.75 3545.03 6805.84 3557.12 6805.84 3572.03Z" stroke="#5DCEAF" stroke-width="3.4375" stroke-linecap="butt" stroke-linejoin="round" stroke-miterlimit="10" stroke-opacity="1" fill="#5DCEAF" fill-rule="nonzero" fill-opacity="1"/><path d="M7523.84 2689.03C7523.84 2703.94 7511.75 2716.03 7496.84 2716.03 7481.93 2716.03 7469.84 2703.94 7469.84 2689.03 7469.84 2674.12 7481.93 2662.03 7496.84 2662.03 7511.75 2662.03 7523.84 2674.12 7523.84 2689.03Z" stroke="#5DCEAF" stroke-width="3.4375" stroke-linecap="butt" stroke-linejoin="round" stroke-miterlimit="10" stroke-opacity="1" fill="#5DCEAF" fill-rule="nonzero" fill-opacity="1"/><path d="M6805.84 4195.03C6805.84 4209.94 6793.75 4222.03 6778.84 4222.03 6763.93 4222.03 6751.84 4209.94 6751.84 4195.03 6751.84 4180.12 6763.93 4168.03 6778.84 4168.03 6793.75 4168.03 6805.84 4180.12 6805.84 4195.03Z" stroke="#5DCEAF" stroke-width="3.4375" stroke-linecap="butt" stroke-linejoin="round" stroke-miterlimit="10" stroke-opacity="1" fill="#5DCEAF" fill-rule="nonzero" fill-opacity="1"/><path d="M6805.84 4300.03C6805.84 4314.94 6793.75 4327.03 6778.84 4327.03 6763.93 4327.03 6751.84 4314.94 6751.84 4300.03 6751.84 4285.12 6763.93 4273.03 6778.84 4273.03 6793.75 4273.03 6805.84 4285.12 6805.84 4300.03Z" stroke="#5DCEAF" stroke-width="3.4375" stroke-linecap="butt" stroke-linejoin="round" stroke-miterlimit="10" stroke-opacity="1" fill="#5DCEAF" fill-rule="nonzero" fill-opacity="1"/><path d="M6805.84 3402.03C6805.84 3416.94 6793.75 3429.03 6778.84 3429.03 6763.93 3429.03 6751.84 3416.94 6751.84 3402.03 6751.84 3387.12 6763.93 3375.03 6778.84 3375.03 6793.75 3375.03 6805.84 3387.12 6805.84 3402.03Z" stroke="#5DCEAF" stroke-width="3.4375" stroke-linecap="butt" stroke-linejoin="round" stroke-miterlimit="10" stroke-opacity="1" fill="#5DCEAF" fill-rule="nonzero" fill-opacity="1"/><path d="M7523.84 3038.03C7523.84 3052.94 7511.75 3065.03 7496.84 3065.03 7481.93 3065.03 7469.84 3052.94 7469.84 3038.03 7469.84 3023.12 7481.93 3011.03 7496.84 3011.03 7511.75 3011.03 7523.84 3023.12 7523.84 3038.03Z" stroke="#5DCEAF" stroke-width="3.4375" stroke-linecap="butt" stroke-linejoin="round" stroke-miterlimit="10" stroke-opacity="1" fill="#5DCEAF" fill-rule="nonzero" fill-opacity="1"/><path d="M7523.84 3046.03C7523.84 3060.94 7511.75 3073.03 7496.84 3073.03 7481.93 3073.03 7469.84 3060.94 7469.84 3046.03 7469.84 3031.12 7481.93 3019.03 7496.84 3019.03 7511.75 3019.03 7523.84 3031.12 7523.84 3046.03Z" stroke="#5DCEAF" stroke-width="3.4375" stroke-linecap="butt" stroke-linejoin="round" stroke-miterlimit="10" stroke-opacity="1" fill="#5DCEAF" fill-rule="nonzero" fill-opacity="1"/><path d="M7523.84 3094.03C7523.84 3108.94 7511.75 3121.03 7496.84 3121.03 7481.93 3121.03 7469.84 3108.94 7469.84 3094.03 7469.84 3079.12 7481.93 3067.03 7496.84 3067.03 7511.75 3067.03 7523.84 3079.12 7523.84 3094.03Z" stroke="#5DCEAF" stroke-width="3.4375" stroke-linecap="butt" stroke-linejoin="round" stroke-miterlimit="10" stroke-opacity="1" fill="#5DCEAF" fill-rule="nonzero" fill-opacity="1"/><path d="M10131.8 2277.03C10131.8 2291.94 10119.8 2304.03 10104.8 2304.03 10089.9 2304.03 10077.8 2291.94 10077.8 2277.03 10077.8 2262.12 10089.9 2250.03 10104.8 2250.03 10119.8 2250.03 10131.8 2262.12 10131.8 2277.03Z" stroke="#5DCEAF" stroke-width="3.4375" stroke-linecap="butt" stroke-linejoin="round" stroke-miterlimit="10" stroke-opacity="1" fill="#5DCEAF" fill-rule="nonzero" fill-opacity="1"/><path d="M10131.8 2520.03C10131.8 2534.94 10119.8 2547.03 10104.8 2547.03 10089.9 2547.03 10077.8 2534.94 10077.8 2520.03 10077.8 2505.12 10089.9 2493.03 10104.8 2493.03 10119.8 2493.03 10131.8 2505.12 10131.8 2520.03Z" stroke="#5DCEAF" stroke-width="3.4375" stroke-linecap="butt" stroke-linejoin="round" stroke-miterlimit="10" stroke-opacity="1" fill="#5DCEAF" fill-rule="nonzero" fill-opacity="1"/><path d="M6805.84 2924.03C6805.84 2938.94 6793.75 2951.03 6778.84 2951.03 6763.93 2951.03 6751.84 2938.94 6751.84 2924.03 6751.84 2909.12 6763.93 2897.03 6778.84 2897.03 6793.75 2897.03 6805.84 2909.12 6805.84 2924.03Z" stroke="#5DCEAF" stroke-width="3.4375" stroke-linecap="butt" stroke-linejoin="round" stroke-miterlimit="10" stroke-opacity="1" fill="#5DCEAF" fill-rule="nonzero" fill-opacity="1"/><path d="M9437.84 3005.03C9437.84 3019.94 9425.75 3032.03 9410.84 3032.03 9395.93 3032.03 9383.84 3019.94 9383.84 3005.03 9383.84 2990.12 9395.93 2978.03 9410.84 2978.03 9425.75 2978.03 9437.84 2990.12 9437.84 3005.03Z" stroke="#5DCEAF" stroke-width="3.4375" stroke-linecap="butt" stroke-linejoin="round" stroke-miterlimit="10" stroke-opacity="1" fill="#5DCEAF" fill-rule="nonzero" fill-opacity="1"/></g><g clip-path="url(#clip6)"><text fill="#404040" fill-opacity="1" font-family="Calibri,Calibri_MSFontService,sans-serif" font-style="normal" font-variant="normal" font-weight="700" font-stretch="normal" font-size="73" text-anchor="start" direction="ltr" writing-mode="lr-tb" unicode-bidi="normal" text-decoration="none" transform="matrix(1 0 0 1 8368.94 3168)">Matsumoto 2006 (saline)</text></g><g clip-path="url(#clip7)"><text fill="#404040" fill-opacity="1" font-family="Calibri,Calibri_MSFontService,sans-serif" font-style="normal" font-variant="normal" font-weight="700" font-stretch="normal" font-size="73" text-anchor="start" direction="ltr" writing-mode="lr-tb" unicode-bidi="normal" text-decoration="none" transform="matrix(1 0 0 1 6837.65 3597)">Zaharchuk 2005 (saline)</text></g><g clip-path="url(#clip8)"><text fill="#404040" fill-opacity="1" font-family="Calibri,Calibri_MSFontService,sans-serif" font-style="normal" font-variant="normal" font-weight="700" font-stretch="normal" font-size="73" text-anchor="start" direction="ltr" writing-mode="lr-tb" unicode-bidi="normal" text-decoration="none" transform="matrix(1 0 0 1 7555.12 2715)">Pilkinton 2012 (water)</text></g><g clip-path="url(#clip9)"><text fill="#404040" fill-opacity="1" font-family="Calibri,Calibri_MSFontService,sans-serif" font-style="normal" font-variant="normal" font-weight="700" font-stretch="normal" font-size="73" text-anchor="start" direction="ltr" writing-mode="lr-tb" unicode-bidi="normal" text-decoration="none" transform="matrix(1 0 0 1 6837.72 4221)">Simpson 2013 (vitreous)</text></g><g clip-path="url(#clip10)"><text fill="#404040" fill-opacity="1" font-family="Calibri,Calibri_MSFontService,sans-serif" font-style="normal" font-variant="normal" font-weight="700" font-stretch="normal" font-size="73" text-anchor="start" direction="ltr" writing-mode="lr-tb" unicode-bidi="normal" text-decoration="none" transform="matrix(1 0 0 1 6837.38 4326)">Simpson 2013 (saline)</text></g><g clip-path="url(#clip11)"><text fill="#404040" fill-opacity="1" font-family="Calibri,Calibri_MSFontService,sans-serif" font-style="normal" font-variant="normal" font-weight="700" font-stretch="normal" font-size="73" text-anchor="start" direction="ltr" writing-mode="lr-tb" unicode-bidi="normal" text-decoration="none" transform="matrix(1 0 0 1 6837.65 3427)">Zaharchuk 2006 (water)</text></g><g clip-path="url(#clip12)"><text fill="#404040" fill-opacity="1" font-family="Calibri,Calibri_MSFontService,sans-serif" font-style="normal" font-variant="normal" font-weight="700" font-stretch="normal" font-size="73" text-anchor="start" direction="ltr" writing-mode="lr-tb" unicode-bidi="normal" text-decoration="none" transform="matrix(1 0 0 1 7556.83 3063)">Muir 2013 (34 degrees) (Vitreous)</text></g><g clip-path="url(#clip13)"><text fill="#404040" fill-opacity="1" font-family="Calibri,Calibri_MSFontService,sans-serif" font-style="normal" font-variant="normal" font-weight="700" font-stretch="normal" font-size="73" text-anchor="start" direction="ltr" writing-mode="lr-tb" unicode-bidi="normal" text-decoration="none" transform="matrix(1 0 0 1 7556.91 3071)">Muir 2013 (37 degrees)  (Vitreous)</text></g><g clip-path="url(#clip14)"><text fill="#404040" fill-opacity="1" font-family="Calibri,Calibri_MSFontService,sans-serif" font-style="normal" font-variant="normal" font-weight="700" font-stretch="normal" font-size="73" text-anchor="start" direction="ltr" writing-mode="lr-tb" unicode-bidi="normal" text-decoration="none" transform="matrix(1 0 0 1 7556.91 3120)">Muir 2013 (40 degrees)  (Vitreous)</text></g><g clip-path="url(#clip15)"><text fill="#404040" fill-opacity="1" font-family="Calibri,Calibri_MSFontService,sans-serif" font-style="normal" font-variant="normal" font-weight="700" font-stretch="normal" font-size="73" text-anchor="start" direction="ltr" writing-mode="lr-tb" unicode-bidi="normal" text-decoration="none" transform="matrix(1 0 0 1 10162.8 2302)">D'othee 2003 (plasma)</text></g><g clip-path="url(#clip16)"><text fill="#404040" fill-opacity="1" font-family="Calibri,Calibri_MSFontService,sans-serif" font-style="normal" font-variant="normal" font-weight="700" font-stretch="normal" font-size="73" text-anchor="start" direction="ltr" writing-mode="lr-tb" unicode-bidi="normal" text-decoration="none" transform="matrix(1 0 0 1 10162.6 2545)">D'othee 2003 (saline)</text></g><g clip-path="url(#clip17)"><text fill="#404040" fill-opacity="1" font-family="Calibri,Calibri_MSFontService,sans-serif" font-style="normal" font-variant="normal" font-weight="700" font-stretch="normal" font-size="73" text-anchor="start" direction="ltr" writing-mode="lr-tb" unicode-bidi="normal" text-decoration="none" transform="matrix(1 0 0 1 6837.29 2950)">D'othee 2003 (saline)</text></g><g clip-path="url(#clip18)"><text fill="#404040" fill-opacity="1" font-family="Calibri,Calibri_MSFontService,sans-serif" font-style="normal" font-variant="normal" font-weight="700" font-stretch="normal" font-size="73" text-anchor="start" direction="ltr" writing-mode="lr-tb" unicode-bidi="normal" text-decoration="none" transform="matrix(1 0 0 1 9469.45 3031)">Bluemke 7T (NB solution)</text></g><g clip-path="url(#clip19)"><path d="M2.47783-7.62851 2.49309-7.62355C6.7062-6.25508 9.01223-1.73032 7.64376 2.48279 6.27529 6.6959 1.75053 9.00193-2.46257 7.63346L-2.47783 7.62851C-6.69094 6.26004-8.99697 1.73528-7.62851-2.47783-6.26004-6.69094-1.73528-8.99697 2.47783-7.62851ZM33.0074 2.28785 33.0226 2.29281C37.2357 3.66141 39.5416 8.18625 38.173 12.3993 36.8044 16.6124 32.2795 18.9183 28.0665 17.5497L28.0512 17.5447C23.8381 16.1761 21.5323 11.6513 22.9009 7.4382 24.2695 3.22514 28.7943 0.919249 33.0074 2.28785ZM63.5359 12.2039 63.5512 12.2089C67.7644 13.5771 70.0707 18.1017 68.7025 22.3149 67.3343 26.5281 62.8097 28.8344 58.5965 27.4662L58.5812 27.4612C54.368 26.093 52.0617 21.5684 53.4299 17.3552 54.7981 13.142 59.3227 10.8357 63.5359 12.2039ZM94.0658 22.1204 94.0811 22.1253C98.2942 23.4939 100.6 28.0187 99.2316 32.2318 97.863 36.4449 93.3382 38.7508 89.1251 37.3823L89.1099 37.3773C84.8968 36.0087 82.5909 31.4839 83.9594 27.2709 85.3279 23.0578 89.8528 20.7518 94.0658 22.1204ZM124.595 32.0367 124.61 32.0416C128.823 33.4102 131.129 37.935 129.761 42.1481 128.392 46.3611 123.868 48.6671 119.654 47.2985L119.639 47.2936C115.426 45.925 113.12 41.4002 114.489 37.1871 115.857 32.9741 120.382 30.6681 124.595 32.0367ZM155.124 41.9529 155.14 41.9579C159.353 43.3264 161.659 47.8513 160.29 52.0643 158.922 56.2774 154.397 58.5834 150.184 57.2148L150.168 57.2099C145.955 55.8413 143.649 51.3165 145.018 47.1034 146.387 42.8903 150.911 40.5844 155.124 41.9529ZM185.654 51.8692 185.669 51.8742C189.882 53.2427 192.188 57.7675 190.819 61.9806 189.451 66.1937 184.926 68.4996 180.713 67.1311L180.698 67.1261C176.485 65.7576 174.179 61.2328 175.547 57.0197 176.916 52.8066 181.441 50.5007 185.654 51.8692ZM216.185 61.786 216.2 61.791C220.413 63.1605 222.718 67.6858 221.348 71.8986 219.979 76.1113 215.453 78.4163 211.241 77.0468L211.225 77.0419C207.013 75.6724 204.708 71.1471 206.077 66.9343 207.447 62.7215 211.972 60.4166 216.185 61.786ZM246.714 71.7023 246.729 71.7073C250.942 73.0767 253.247 77.6021 251.877 81.8148 250.508 86.0276 245.983 88.3326 241.77 86.9631L241.755 86.9582C237.542 85.5887 235.237 81.0634 236.606 76.8506 237.976 72.6378 242.501 70.3328 246.714 71.7023ZM277.243 81.6186 277.258 81.6236C281.471 82.993 283.776 87.5183 282.407 91.7311 281.037 95.9439 276.512 98.2489 272.299 96.8794L272.284 96.8744C268.071 95.505 265.766 90.9797 267.136 86.7669 268.505 82.5541 273.03 80.2491 277.243 81.6186ZM307.77 91.534 307.785 91.539C311.998 92.9071 314.305 97.4316 312.937 101.645 311.569 105.858 307.044 108.165 302.831 106.796L302.816 106.792C298.602 105.423 296.296 100.899 297.664 96.6857 299.032 92.4725 303.557 90.166 307.77 91.534ZM338.299 101.45 338.314 101.455C342.528 102.823 344.834 107.348 343.466 111.561 342.098 115.774 337.573 118.081 333.36 116.713L333.345 116.708C329.132 115.34 326.825 110.815 328.193 106.602 329.561 102.389 334.086 100.082 338.299 101.45ZM368.828 111.367 368.844 111.372C373.057 112.74 375.363 117.264 373.995 121.477 372.627 125.691 368.103 127.997 363.889 126.629L363.874 126.624C359.661 125.256 357.354 120.731 358.723 116.518 360.091 112.305 364.615 109.999 368.828 111.367ZM399.358 121.283 399.373 121.288C403.586 122.656 405.893 127.18 404.525 131.394 403.156 135.607 398.632 137.913 394.419 136.545L394.403 136.54C390.19 135.172 387.884 130.648 389.252 126.435 390.62 122.221 395.144 119.915 399.358 121.283ZM429.887 131.199 429.902 131.204C434.115 132.572 436.422 137.097 435.054 141.31 433.686 145.523 429.161 147.83 424.948 146.462L424.933 146.457C420.719 145.089 418.413 140.564 419.781 136.351 421.149 132.138 425.674 129.831 429.887 131.199ZM460.416 141.115 460.431 141.12C464.645 142.488 466.951 147.013 465.583 151.226 464.215 155.439 459.69 157.746 455.477 156.378L455.462 156.373C451.249 155.005 448.942 150.48 450.31 146.267 451.678 142.054 456.203 139.747 460.416 141.115ZM490.945 151.032 490.961 151.037C495.174 152.405 497.48 156.929 496.112 161.142 494.744 165.356 490.22 167.662 486.006 166.294L485.991 166.289C481.778 164.921 479.471 160.397 480.839 156.183 482.208 151.97 486.732 149.664 490.945 151.032ZM521.475 160.948 521.49 160.953C525.703 162.321 528.01 166.846 526.641 171.059 525.273 175.272 520.749 177.578 516.536 176.21L516.52 176.205C512.307 174.837 510.001 170.313 511.369 166.1 512.737 161.886 517.261 159.58 521.475 160.948ZM552.004 170.864 552.019 170.869C556.232 172.237 558.539 176.762 557.171 180.975 555.803 185.188 551.278 187.495 547.065 186.127L547.05 186.122C542.836 184.754 540.53 180.229 541.898 176.016 543.266 171.803 547.791 169.496 552.004 170.864ZM582.533 180.781 582.548 180.785C586.762 182.154 589.068 186.678 587.7 190.891 586.332 195.105 581.807 197.411 577.594 196.043L577.579 196.038C573.366 194.67 571.059 190.145 572.427 185.932 573.795 181.719 578.32 179.412 582.533 180.781ZM613.067 190.698 613.083 190.703C617.295 192.074 619.598 196.6 618.228 200.813 616.857 205.025 612.331 207.328 608.118 205.958L608.103 205.953C603.891 204.582 601.587 200.056 602.958 195.843 604.329 191.631 608.855 189.328 613.067 190.698ZM643.597 200.615 643.612 200.62C647.824 201.991 650.128 206.517 648.757 210.729 647.386 214.941 642.86 217.245 638.648 215.874L638.632 215.869C634.42 214.498 632.117 209.972 633.487 205.76 634.858 201.547 639.384 199.244 643.597 200.615ZM674.126 210.531 674.141 210.536C678.353 211.907 680.657 216.433 679.286 220.645 677.915 224.858 673.389 227.161 669.177 225.79L669.161 225.785C664.949 224.414 662.646 219.888 664.017 215.676 665.388 211.464 669.914 209.16 674.126 210.531ZM704.655 220.447 704.67 220.452C708.883 221.823 711.186 226.349 709.815 230.562 708.444 234.774 703.918 237.077 699.706 235.706L699.691 235.701C695.478 234.331 693.175 229.805 694.546 225.592 695.917 221.38 700.443 219.076 704.655 220.447ZM735.184 230.364 735.2 230.369C739.412 231.739 741.715 236.265 740.345 240.478 738.974 244.69 734.448 246.994 730.235 245.623L730.22 245.618C726.008 244.247 723.704 239.721 725.075 235.508 726.446 231.296 730.972 228.993 735.184 230.364ZM765.714 240.28 765.729 240.285C769.941 241.656 772.245 246.182 770.874 250.394 769.503 254.606 764.977 256.91 760.764 255.539L760.749 255.534C756.537 254.163 754.234 249.637 755.604 245.425 756.975 241.212 761.501 238.909 765.714 240.28ZM796.243 250.196 796.258 250.201C800.471 251.572 802.774 256.098 801.403 260.31 800.032 264.523 795.506 266.826 791.294 265.455L791.279 265.45C787.066 264.079 784.763 259.553 786.134 255.341 787.504 251.129 792.031 248.825 796.243 250.196ZM826.772 260.112 826.787 260.117C831 261.488 833.303 266.014 831.932 270.227 830.561 274.439 826.035 276.742 821.823 275.372L821.808 275.367C817.595 273.996 815.292 269.47 816.663 265.257 818.034 261.045 822.56 258.742 826.772 260.112ZM857.301 270.029 857.317 270.034C861.529 271.405 863.832 275.931 862.462 280.143 861.091 284.355 856.565 286.659 852.352 285.288L852.337 285.283C848.125 283.912 845.821 279.386 847.192 275.174 848.563 270.961 853.089 268.658 857.301 270.029ZM887.831 279.945 887.846 279.95C892.058 281.321 894.362 285.847 892.991 290.059 891.62 294.272 887.094 296.575 882.881 295.204L882.866 295.199C878.654 293.828 876.35 289.302 877.721 285.09 879.092 280.878 883.618 278.574 887.831 279.945ZM918.36 289.861 918.375 289.866C922.587 291.237 924.891 295.763 923.52 299.976 922.149 304.188 917.623 306.491 913.411 305.12L913.395 305.115C909.183 303.745 906.88 299.219 908.251 295.006 909.621 290.794 914.148 288.49 918.36 289.861ZM948.889 299.778 948.904 299.783C953.117 301.153 955.42 305.679 954.049 309.892 952.678 314.104 948.152 316.408 943.94 315.037L943.925 315.032C939.712 313.661 937.409 309.135 938.78 304.922 940.151 300.71 944.677 298.407 948.889 299.778ZM979.418 309.694 979.434 309.699C983.646 311.07 985.949 315.596 984.578 319.808 983.208 324.02 978.682 326.324 974.469 324.953L974.454 324.948C970.242 323.577 967.938 319.051 969.309 314.839 970.68 310.626 975.206 308.323 979.418 309.694ZM1009.95 319.61 1009.96 319.615C1014.18 320.986 1016.48 325.512 1015.11 329.724 1013.74 333.937 1009.21 336.24 1005 334.869L1004.98 334.864C1000.77 333.493 998.467 328.967 999.838 324.755 1001.21 320.543 1005.74 318.239 1009.95 319.61ZM1040.48 329.526 1040.49 329.531C1044.7 330.902 1047.01 335.428 1045.64 339.641 1044.27 343.853 1039.74 346.156 1035.53 344.786L1035.51 344.781C1031.3 343.41 1029 338.884 1030.37 334.671 1031.74 330.459 1036.26 328.156 1040.48 329.526ZM1071.01 339.443 1071.02 339.448C1075.23 340.819 1077.54 345.345 1076.17 349.557 1074.8 353.769 1070.27 356.073 1066.06 354.702L1066.04 354.697C1061.83 353.326 1059.53 348.8 1060.9 344.588 1062.27 340.375 1066.79 338.072 1071.01 339.443ZM1101.54 349.359 1101.55 349.364C1105.76 350.735 1108.07 355.261 1106.7 359.473 1105.32 363.686 1100.8 365.989 1096.59 364.618L1096.57 364.613C1092.36 363.242 1090.06 358.716 1091.43 354.504 1092.8 350.292 1097.32 347.988 1101.54 349.359ZM1132.06 359.275 1132.08 359.28C1136.29 360.651 1138.6 365.177 1137.22 369.39 1135.85 373.602 1131.33 375.905 1127.12 374.534L1127.1 374.529C1122.89 373.159 1120.58 368.633 1121.96 364.42 1123.33 360.208 1127.85 357.904 1132.06 359.275ZM1162.59 369.192 1162.61 369.197C1166.82 370.567 1169.12 375.093 1167.75 379.306 1166.38 383.518 1161.86 385.822 1157.64 384.451L1157.63 384.446C1153.42 383.075 1151.11 378.549 1152.48 374.336 1153.86 370.124 1158.38 367.821 1162.59 369.192ZM1193.12 379.108 1193.14 379.113C1197.35 380.484 1199.65 385.01 1198.28 389.222 1196.91 393.434 1192.39 395.738 1188.17 394.367L1188.16 394.362C1183.95 392.991 1181.64 388.465 1183.01 384.253 1184.38 380.04 1188.91 377.737 1193.12 379.108ZM1223.65 389.024 1223.67 389.029C1227.88 390.4 1230.18 394.926 1228.81 399.138 1227.44 403.351 1222.92 405.654 1218.7 404.283L1218.69 404.278C1214.48 402.907 1212.17 398.381 1213.54 394.169 1214.91 389.957 1219.44 387.653 1223.65 389.024ZM1254.18 398.94 1254.2 398.945C1258.41 400.316 1260.71 404.842 1259.34 409.055 1257.97 413.267 1253.44 415.57 1249.23 414.2L1249.22 414.195C1245 412.824 1242.7 408.298 1244.07 404.085 1245.44 399.873 1249.97 397.57 1254.18 398.94ZM1284.71 408.857 1284.73 408.862C1288.94 410.233 1291.24 414.759 1289.87 418.971 1288.5 423.183 1283.97 425.487 1279.76 424.116L1279.75 424.111C1275.53 422.74 1273.23 418.214 1274.6 414.002 1275.97 409.789 1280.5 407.486 1284.71 408.857ZM1315.24 418.773 1315.26 418.778C1319.47 420.149 1321.77 424.675 1320.4 428.887 1319.03 433.1 1314.5 435.403 1310.29 434.032L1310.28 434.027C1306.06 432.656 1303.76 428.13 1305.13 423.918 1306.5 419.706 1311.03 417.402 1315.24 418.773ZM1345.77 428.689 1345.78 428.694C1350 430.065 1352.3 434.591 1350.93 438.803 1349.56 443.016 1345.03 445.319 1340.82 443.948L1340.8 443.943C1336.59 442.573 1334.29 438.046 1335.66 433.834 1337.03 429.622 1341.56 427.318 1345.77 428.689ZM1376.3 438.606 1376.31 438.611C1380.53 439.981 1382.83 444.508 1381.46 448.72 1380.09 452.932 1375.56 455.236 1371.35 453.865L1371.33 453.86C1367.12 452.489 1364.82 447.963 1366.19 443.75 1367.56 439.538 1372.09 437.235 1376.3 438.606ZM1406.83 448.522 1406.84 448.527C1411.06 449.898 1413.36 454.424 1411.99 458.636 1410.62 462.848 1406.09 465.152 1401.88 463.781L1401.86 463.776C1397.65 462.405 1395.35 457.879 1396.72 453.667 1398.09 449.454 1402.62 447.151 1406.83 448.522ZM1437.36 458.438 1437.37 458.443C1441.58 459.814 1443.89 464.34 1442.52 468.552 1441.15 472.765 1436.62 475.068 1432.41 473.697L1432.39 473.692C1428.18 472.321 1425.88 467.795 1427.25 463.583 1428.62 459.371 1433.14 457.067 1437.36 458.438ZM1467.89 468.354 1467.9 468.359C1472.11 469.73 1474.42 474.256 1473.05 478.469 1471.68 482.681 1467.15 484.984 1462.94 483.614L1462.92 483.609C1458.71 482.238 1456.41 477.712 1457.78 473.499 1459.15 469.287 1463.67 466.984 1467.89 468.354ZM1498.42 478.271 1498.43 478.276C1502.64 479.647 1504.95 484.173 1503.58 488.385 1502.2 492.597 1497.68 494.901 1493.47 493.53L1493.45 493.525C1489.24 492.154 1486.94 487.628 1488.31 483.416 1489.68 479.203 1494.2 476.9 1498.42 478.271ZM1528.93 488.183 1528.95 488.188C1533.16 489.551 1535.47 494.073 1534.11 498.288 1532.75 502.503 1528.22 504.814 1524.01 503.45L1523.99 503.445C1519.78 502.082 1517.47 497.56 1518.83 493.345 1520.19 489.13 1524.72 486.819 1528.93 488.183ZM1559.46 498.099 1559.48 498.104C1563.69 499.468 1566 503.99 1564.64 508.204 1563.28 512.419 1558.75 514.73 1554.54 513.367L1554.52 513.362C1550.31 511.998 1548 507.476 1549.36 503.261 1550.72 499.047 1555.25 496.735 1559.46 498.099ZM1589.99 508.015 1590.01 508.02C1594.22 509.384 1596.53 513.906 1595.17 518.121 1593.8 522.335 1589.28 524.647 1585.07 523.283L1585.05 523.278C1580.84 521.914 1578.53 517.392 1579.89 513.178 1581.25 508.963 1585.78 506.652 1589.99 508.015ZM1620.52 517.932 1620.53 517.937C1624.75 519.3 1627.06 523.822 1625.7 528.037 1624.33 532.252 1619.81 534.563 1615.6 533.199L1615.58 533.194C1611.37 531.831 1609.06 527.309 1610.42 523.094 1611.78 518.879 1616.3 516.568 1620.52 517.932ZM1651.05 527.848 1651.06 527.853C1655.28 529.216 1657.59 533.738 1656.23 537.953 1654.86 542.168 1650.34 544.479 1646.13 543.116L1646.11 543.111C1641.9 541.747 1639.58 537.225 1640.95 533.01 1642.31 528.796 1646.83 526.484 1651.05 527.848ZM1681.58 537.764 1681.59 537.769C1685.81 539.133 1688.12 543.655 1686.76 547.869 1685.39 552.084 1680.87 554.395 1676.66 553.032L1676.64 553.027C1672.43 551.663 1670.11 547.141 1671.48 542.927 1672.84 538.712 1677.36 536.401 1681.58 537.764ZM1712.11 547.68 1712.12 547.685C1716.34 549.049 1718.65 553.571 1717.29 557.786 1715.92 562 1711.4 564.312 1707.18 562.948L1707.17 562.943C1702.95 561.58 1700.64 557.057 1702.01 552.843 1703.37 548.628 1707.89 546.317 1712.11 547.68ZM1742.64 557.597 1742.65 557.602C1746.87 558.965 1749.18 563.487 1747.81 567.702 1746.45 571.917 1741.93 574.228 1737.71 572.864L1737.7 572.859C1733.48 571.496 1731.17 566.974 1732.54 562.759 1733.9 558.544 1738.42 556.233 1742.64 557.597ZM1773.17 567.513 1773.18 567.518C1777.4 568.882 1779.71 573.404 1778.34 577.618 1776.98 581.833 1772.46 584.144 1768.24 582.781L1768.23 582.776C1764.01 581.412 1761.7 576.89 1763.07 572.675 1764.43 568.461 1768.95 566.149 1773.17 567.513ZM1803.7 577.429 1803.71 577.434C1807.93 578.798 1810.24 583.32 1808.87 587.535 1807.51 591.749 1802.99 594.061 1798.77 592.697L1798.76 592.692C1794.54 591.328 1792.23 586.806 1793.6 582.592 1794.96 578.377 1799.48 576.066 1803.7 577.429ZM1834.22 587.346 1834.24 587.351C1838.45 588.714 1840.77 593.236 1839.4 597.451 1838.04 601.666 1833.52 603.977 1829.3 602.613L1829.29 602.608C1825.07 601.245 1822.76 596.723 1824.12 592.508 1825.49 588.293 1830.01 585.982 1834.22 587.346ZM1864.75 597.262 1864.77 597.267C1868.98 598.63 1871.3 603.152 1869.93 607.367 1868.57 611.582 1864.05 613.893 1859.83 612.53L1859.82 612.525C1855.6 611.161 1853.29 606.639 1854.65 602.424 1856.02 598.21 1860.54 595.898 1864.75 597.262ZM1895.28 607.178 1895.3 607.183C1899.51 608.547 1901.82 613.069 1900.46 617.283 1899.1 621.498 1894.58 623.809 1890.36 622.446L1890.35 622.441C1886.13 621.077 1883.82 616.555 1885.18 612.341 1886.55 608.126 1891.07 605.815 1895.28 607.178ZM1925.81 617.094 1925.83 617.099C1930.04 618.463 1932.35 622.985 1930.99 627.2 1929.63 631.414 1925.1 633.726 1920.89 632.362L1920.87 632.357C1916.66 630.994 1914.35 626.471 1915.71 622.257 1917.08 618.042 1921.6 615.731 1925.81 617.094ZM1956.34 627.011 1956.36 627.016C1960.57 628.379 1962.88 632.901 1961.52 637.116 1960.16 641.331 1955.63 643.642 1951.42 642.278L1951.4 642.273C1947.19 640.91 1944.88 636.388 1946.24 632.173 1947.61 627.958 1952.13 625.647 1956.34 627.011ZM1986.87 636.927 1986.89 636.932C1991.1 638.296 1993.41 642.818 1992.05 647.032 1990.69 651.247 1986.16 653.558 1981.95 652.195L1981.93 652.19C1977.72 650.826 1975.41 646.304 1976.77 642.089 1978.13 637.875 1982.66 635.563 1986.87 636.927ZM2017.4 646.843 2017.42 646.848C2021.63 648.212 2023.94 652.734 2022.58 656.949 2021.21 661.163 2016.69 663.475 2012.48 662.111L2012.46 662.106C2008.25 660.742 2005.94 656.22 2007.3 652.006 2008.66 647.791 2013.19 645.48 2017.4 646.843ZM2047.93 656.76 2047.95 656.765C2052.16 658.128 2054.47 662.65 2053.11 666.865 2051.74 671.08 2047.22 673.391 2043.01 672.027L2042.99 672.022C2038.78 670.659 2036.47 666.137 2037.83 661.922 2039.19 657.707 2043.72 655.396 2047.93 656.76ZM2078.46 666.676 2078.47 666.681C2082.69 668.044 2085 672.566 2083.64 676.781 2082.27 680.996 2077.75 683.307 2073.54 681.944L2073.52 681.939C2069.31 680.575 2067 676.053 2068.36 671.838 2069.72 667.624 2074.24 665.312 2078.46 666.676ZM2108.99 676.592 2109 676.597C2113.22 677.961 2115.53 682.483 2114.17 686.697 2112.8 690.912 2108.28 693.223 2104.07 691.86L2104.05 691.855C2099.84 690.491 2097.52 685.969 2098.89 681.755 2100.25 677.54 2104.77 675.229 2108.99 676.592ZM2139.52 686.508 2139.53 686.513C2143.75 687.877 2146.06 692.399 2144.7 696.614 2143.33 700.828 2138.81 703.14 2134.6 701.776L2134.58 701.771C2130.37 700.408 2128.05 695.885 2129.42 691.671 2130.78 687.456 2135.3 685.145 2139.52 686.508ZM2170.05 696.425 2170.06 696.43C2174.28 697.793 2176.59 702.315 2175.23 706.53 2173.86 710.745 2169.34 713.056 2165.12 711.692L2165.11 711.687C2160.89 710.324 2158.58 705.802 2159.95 701.587 2161.31 697.372 2165.83 695.061 2170.05 696.425ZM2200.58 706.341 2200.59 706.346C2204.81 707.71 2207.12 712.232 2205.75 716.446 2204.39 720.661 2199.87 722.972 2195.65 721.609L2195.64 721.604C2191.42 720.24 2189.11 715.718 2190.48 711.503 2191.84 707.289 2196.36 704.977 2200.58 706.341ZM2231.11 716.257 2231.12 716.262C2235.34 717.626 2237.65 722.148 2236.28 726.363 2234.92 730.577 2230.4 732.889 2226.18 731.525L2226.17 731.52C2221.95 730.156 2219.64 725.634 2221.01 721.42 2222.37 717.205 2226.89 714.894 2231.11 716.257ZM2261.64 726.174 2261.65 726.179C2265.87 727.542 2268.18 732.064 2266.81 736.279 2265.45 740.494 2260.93 742.805 2256.71 741.441L2256.7 741.436C2252.48 740.073 2250.17 735.551 2251.54 731.336 2252.9 727.121 2257.42 724.81 2261.64 726.174ZM2292.16 736.09 2292.18 736.095C2296.39 737.458 2298.71 741.98 2297.34 746.195 2295.98 750.41 2291.46 752.721 2287.24 751.358L2287.23 751.353C2283.01 749.989 2280.7 745.467 2282.06 741.252 2283.43 737.038 2287.95 734.726 2292.16 736.09ZM2322.69 746.006 2322.71 746.011C2326.92 747.375 2329.24 751.897 2327.87 756.111 2326.51 760.326 2321.99 762.637 2317.77 761.274L2317.76 761.269C2313.54 759.905 2311.23 755.383 2312.59 751.169 2313.96 746.954 2318.48 744.643 2322.69 746.006ZM2353.22 755.922 2353.24 755.927C2357.45 757.291 2359.76 761.813 2358.4 766.028 2357.04 770.242 2352.52 772.554 2348.3 771.19L2348.29 771.185C2344.07 769.822 2341.76 765.299 2343.12 761.085 2344.49 756.87 2349.01 754.559 2353.22 755.922ZM2383.75 765.839 2383.77 765.844C2387.98 767.207 2390.29 771.729 2388.93 775.944 2387.57 780.159 2383.04 782.47 2378.83 781.106L2378.81 781.101C2374.6 779.738 2372.29 775.216 2373.65 771.001 2375.02 766.786 2379.54 764.475 2383.75 765.839ZM2414.28 775.755 2414.3 775.76C2418.51 777.123 2420.82 781.645 2419.46 785.86 2418.1 790.075 2413.57 792.386 2409.36 791.023L2409.34 791.018C2405.13 789.654 2402.82 785.132 2404.18 780.917 2405.55 776.703 2410.07 774.391 2414.28 775.755ZM2444.81 785.671 2444.83 785.676C2449.04 787.04 2451.35 791.562 2449.99 795.776 2448.63 799.991 2444.1 802.302 2439.89 800.939L2439.87 800.934C2435.66 799.57 2433.35 795.048 2434.71 790.833 2436.07 786.619 2440.6 784.307 2444.81 785.671ZM2475.34 795.587 2475.36 795.592C2479.57 796.956 2481.88 801.478 2480.52 805.693 2479.16 809.907 2474.63 812.219 2470.42 810.855L2470.4 810.85C2466.19 809.487 2463.88 804.964 2465.24 800.75 2466.6 796.535 2471.13 794.224 2475.34 795.587ZM2505.87 805.504 2505.89 805.509C2510.1 806.872 2512.41 811.394 2511.05 815.609 2509.68 819.824 2505.16 822.135 2500.95 820.771L2500.93 820.766C2496.72 819.403 2494.41 814.881 2495.77 810.666 2497.13 806.451 2501.66 804.14 2505.87 805.504ZM2536.4 815.42 2536.41 815.425C2540.63 816.788 2542.94 821.31 2541.58 825.525 2540.21 829.74 2535.69 832.051 2531.48 830.688L2531.46 830.682C2527.25 829.319 2524.94 824.797 2526.3 820.582 2527.66 816.368 2532.18 814.056 2536.4 815.42ZM2566.93 825.336 2566.94 825.341C2571.16 826.705 2573.47 831.227 2572.11 835.441 2570.74 839.656 2566.22 841.967 2562.01 840.604L2561.99 840.599C2557.78 839.235 2555.46 834.713 2556.83 830.498 2558.19 826.284 2562.71 823.972 2566.93 825.336ZM2597.46 835.252 2597.47 835.257C2601.69 836.621 2604 841.143 2602.64 845.358 2601.27 849.572 2596.75 851.884 2592.54 850.52L2592.52 850.515C2588.31 849.151 2585.99 844.629 2587.36 840.415 2588.72 836.2 2593.24 833.889 2597.46 835.252ZM2627.99 845.169 2628 845.174C2632.22 846.537 2634.53 851.059 2633.17 855.274 2631.8 859.489 2627.28 861.8 2623.06 860.436L2623.05 860.431C2618.83 859.068 2616.52 854.546 2617.89 850.331 2619.25 846.116 2623.77 843.805 2627.99 845.169ZM2658.52 855.085 2658.53 855.09C2662.75 856.453 2665.06 860.975 2663.69 865.19 2662.33 869.405 2657.81 871.716 2653.59 870.352L2653.58 870.347C2649.36 868.984 2647.05 864.462 2648.42 860.247 2649.78 856.033 2654.3 853.721 2658.52 855.085ZM2689.05 865.001 2689.06 865.006C2693.28 866.37 2695.59 870.892 2694.22 875.106 2692.86 879.321 2688.34 881.632 2684.12 880.269L2684.11 880.264C2679.89 878.9 2677.58 874.378 2678.95 870.163 2680.31 865.949 2684.83 863.637 2689.05 865.001ZM2719.58 874.917 2719.59 874.922C2723.81 876.286 2726.12 880.808 2724.75 885.023 2723.39 889.237 2718.87 891.549 2714.65 890.185L2714.64 890.18C2710.42 888.816 2708.11 884.294 2709.48 880.08 2710.84 875.865 2715.36 873.554 2719.58 874.917ZM2750.1 884.834 2750.12 884.839C2754.33 886.202 2756.65 890.724 2755.28 894.939 2753.92 899.154 2749.4 901.465 2745.18 900.101L2745.17 900.096C2740.95 898.733 2738.64 894.211 2740 889.996 2741.37 885.781 2745.89 883.47 2750.1 884.834ZM2780.63 894.75 2780.65 894.755C2784.86 896.118 2787.18 900.641 2785.81 904.855 2784.45 909.07 2779.93 911.381 2775.71 910.018L2775.7 910.013C2771.48 908.649 2769.17 904.127 2770.53 899.912 2771.9 895.698 2776.42 893.386 2780.63 894.75ZM2811.16 904.666 2811.18 904.671C2815.39 906.035 2817.7 910.557 2816.34 914.771 2814.98 918.986 2810.46 921.297 2806.24 919.934L2806.23 919.929C2802.01 918.565 2799.7 914.043 2801.06 909.829 2802.43 905.614 2806.95 903.303 2811.16 904.666ZM2841.69 914.583 2841.71 914.587C2845.92 915.951 2848.23 920.473 2846.87 924.688 2845.51 928.902 2840.98 931.214 2836.77 929.85L2836.75 929.845C2832.54 928.482 2830.23 923.96 2831.59 919.745 2832.96 915.53 2837.48 913.219 2841.69 914.583ZM2872.22 924.499 2872.24 924.504C2876.45 925.867 2878.76 930.389 2877.4 934.604 2876.04 938.819 2871.51 941.13 2867.3 939.766L2867.28 939.761C2863.07 938.398 2860.76 933.876 2862.12 929.661 2863.49 925.446 2868.01 923.135 2872.22 924.499ZM2902.75 934.415 2902.77 934.42C2906.98 935.784 2909.29 940.306 2907.93 944.52 2906.57 948.735 2902.04 951.046 2897.83 949.683L2897.81 949.678C2893.6 948.314 2891.29 943.792 2892.65 939.577 2894.01 935.363 2898.54 933.051 2902.75 934.415ZM2933.28 944.331 2933.3 944.336C2937.51 945.7 2939.82 950.222 2938.46 954.437 2937.09 958.651 2932.57 960.963 2928.36 959.599L2928.34 959.594C2924.13 958.23 2921.82 953.708 2923.18 949.494 2924.54 945.279 2929.07 942.968 2933.28 944.331ZM2963.81 954.248 2963.83 954.253C2968.04 955.616 2970.35 960.138 2968.99 964.353 2967.62 968.568 2963.1 970.879 2958.89 969.515L2958.87 969.51C2954.66 968.147 2952.35 963.625 2953.71 959.41 2955.07 955.195 2959.6 952.884 2963.81 954.248ZM2994.34 964.164 2994.35 964.169C2998.57 965.532 3000.88 970.054 2999.52 974.269 2998.15 978.484 2993.63 980.795 2989.42 979.432L2989.4 979.427C2985.19 978.063 2982.88 973.541 2984.24 969.326 2985.6 965.112 2990.12 962.8 2994.34 964.164ZM3024.87 974.08 3024.88 974.085C3029.1 975.449 3031.41 979.971 3030.05 984.185 3028.68 988.4 3024.16 990.711 3019.95 989.348L3019.93 989.343C3015.72 987.979 3013.4 983.457 3014.77 979.242 3016.13 975.028 3020.65 972.716 3024.87 974.08ZM3055.42 984.005 3055.44 984.01C3059.65 985.388 3061.94 989.918 3060.57 994.128 3059.19 998.338 3054.66 1000.63 3050.45 999.256L3050.43 999.251C3046.22 997.872 3043.93 993.342 3045.31 989.132 3046.68 984.922 3051.21 982.627 3055.42 984.005ZM3085.95 993.921 3085.97 993.926C3090.18 995.305 3092.47 999.835 3091.1 1004.04 3089.72 1008.25 3085.19 1010.55 3080.98 1009.17L3080.96 1009.17C3076.75 1007.79 3074.46 1003.26 3075.83 999.048 3077.21 994.839 3081.74 992.543 3085.95 993.921ZM3116.48 1003.84 3116.5 1003.84C3120.71 1005.22 3123 1009.75 3121.62 1013.96 3120.25 1018.17 3115.72 1020.47 3111.51 1019.09L3111.49 1019.08C3107.28 1017.7 3104.99 1013.17 3106.36 1008.96 3107.74 1004.75 3112.27 1002.46 3116.48 1003.84ZM3147.01 1013.75 3147.03 1013.76C3151.24 1015.14 3153.53 1019.67 3152.15 1023.88 3150.78 1028.09 3146.25 1030.38 3142.04 1029L3142.02 1029C3137.81 1027.62 3135.51 1023.09 3136.89 1018.88 3138.27 1014.67 3142.8 1012.38 3147.01 1013.75ZM3177.54 1023.67 3177.56 1023.68C3181.77 1025.05 3184.06 1029.58 3182.68 1033.79 3181.3 1038 3176.77 1040.3 3172.56 1038.92L3172.55 1038.92C3168.34 1037.54 3166.04 1033.01 3167.42 1028.8 3168.8 1024.59 3173.33 1022.29 3177.54 1023.67ZM3208.07 1033.59 3208.08 1033.59C3212.29 1034.97 3214.59 1039.5 3213.21 1043.71 3211.83 1047.92 3207.3 1050.22 3203.09 1048.84L3203.08 1048.83C3198.87 1047.45 3196.57 1042.92 3197.95 1038.71 3199.33 1034.5 3203.86 1032.21 3208.07 1033.59ZM3238.6 1043.5 3238.61 1043.51C3242.82 1044.89 3245.12 1049.42 3243.74 1053.63 3242.36 1057.84 3237.83 1060.13 3233.62 1058.75L3233.61 1058.75C3229.4 1057.37 3227.1 1052.84 3228.48 1048.63 3229.86 1044.42 3234.39 1042.12 3238.6 1043.5ZM3269.13 1053.42 3269.14 1053.42C3273.35 1054.8 3275.65 1059.33 3274.27 1063.54 3272.89 1067.75 3268.36 1070.05 3264.15 1068.67L3264.14 1068.66C3259.93 1067.29 3257.63 1062.76 3259.01 1058.55 3260.39 1054.34 3264.92 1052.04 3269.13 1053.42ZM3299.66 1063.34 3299.67 1063.34C3303.88 1064.72 3306.18 1069.25 3304.8 1073.46 3303.42 1077.67 3298.89 1079.96 3294.68 1078.59L3294.67 1078.58C3290.46 1077.2 3288.16 1072.67 3289.54 1068.46 3290.92 1064.25 3295.45 1061.96 3299.66 1063.34Z" fill="#5DCEAF" fill-rule="nonzero" fill-opacity="1" transform="matrix(1 0 0 -1 6779 3512)"/></g><g clip-path="url(#clip20)"><text fill="#595959" fill-opacity="1" font-family="Calibri,Calibri_MSFontService,sans-serif" font-style="normal" font-variant="normal" font-weight="700" font-stretch="normal" font-size="110" text-anchor="start" direction="ltr" writing-mode="lr-tb" unicode-bidi="normal" text-decoration="none" transform="matrix(1 0 0 1 9137.59 1885)">y = 2E</text></g><g clip-path="url(#clip21)"><text fill="#595959" fill-opacity="1" font-family="Calibri,Calibri_MSFontService,sans-serif" font-style="normal" font-variant="normal" font-weight="700" font-stretch="normal" font-size="110" text-anchor="start" direction="ltr" writing-mode="lr-tb" unicode-bidi="normal" text-decoration="none" transform="matrix(1 0 0 1 9401.46 1885)">-</text></g><g clip-path="url(#clip22)"><text fill="#595959" fill-opacity="1" font-family="Calibri,Calibri_MSFontService,sans-serif" font-style="normal" font-variant="normal" font-weight="700" font-stretch="normal" font-size="110" text-anchor="start" direction="ltr" writing-mode="lr-tb" unicode-bidi="normal" text-decoration="none" transform="matrix(1 0 0 1 9435.14 1885)">05x </text></g><g clip-path="url(#clip23)"><text fill="#595959" fill-opacity="1" font-family="Calibri,Calibri_MSFontService,sans-serif" font-style="normal" font-variant="normal" font-weight="700" font-stretch="normal" font-size="110" text-anchor="start" direction="ltr" writing-mode="lr-tb" unicode-bidi="normal" text-decoration="none" transform="matrix(1 0 0 1 9622.05 1885)">-</text></g><g clip-path="url(#clip24)"><text fill="#595959" fill-opacity="1" font-family="Calibri,Calibri_MSFontService,sans-serif" font-style="normal" font-variant="normal" font-weight="700" font-stretch="normal" font-size="110" text-anchor="start" direction="ltr" writing-mode="lr-tb" unicode-bidi="normal" text-decoration="none" transform="matrix(1 0 0 1 9680.6 1885)">0.0003</text></g><g clip-path="url(#clip25)"><text fill="#595959" fill-opacity="1" font-family="Calibri,Calibri_MSFontService,sans-serif" font-style="normal" font-variant="normal" font-weight="700" font-stretch="normal" font-size="110" text-anchor="start" direction="ltr" writing-mode="lr-tb" unicode-bidi="normal" text-decoration="none" transform="matrix(1 0 0 1 9307.29 2019)">R² = 0.4876</text></g><g clip-path="url(#clip26)"><text fill="#595959" fill-opacity="1" font-family="Calibri,Calibri_MSFontService,sans-serif" font-style="normal" font-variant="normal" font-weight="700" font-stretch="normal" font-size="110" text-anchor="start" direction="ltr" writing-mode="lr-tb" unicode-bidi="normal" text-decoration="none" transform="matrix(1 0 0 1 5617.41 4658)">-0.0004</text></g><g clip-path="url(#clip27)"><text fill="#595959" fill-opacity="1" font-family="Calibri,Calibri_MSFontService,sans-serif" font-style="normal" font-variant="normal" font-weight="700" font-stretch="normal" font-size="110" text-anchor="start" direction="ltr" writing-mode="lr-tb" unicode-bidi="normal" text-decoration="none" transform="matrix(1 0 0 1 5561.65 4254)">-0.00035</text></g><g clip-path="url(#clip28)"><text fill="#595959" fill-opacity="1" font-family="Calibri,Calibri_MSFontService,sans-serif" font-style="normal" font-variant="normal" font-weight="700" font-stretch="normal" font-size="110" text-anchor="start" direction="ltr" writing-mode="lr-tb" unicode-bidi="normal" text-decoration="none" transform="matrix(1 0 0 1 5617.41 3849)">-0.0003</text></g><g clip-path="url(#clip29)"><text fill="#595959" fill-opacity="1" font-family="Calibri,Calibri_MSFontService,sans-serif" font-style="normal" font-variant="normal" font-weight="700" font-stretch="normal" font-size="110" text-anchor="start" direction="ltr" writing-mode="lr-tb" unicode-bidi="normal" text-decoration="none" transform="matrix(1 0 0 1 5561.65 3444)">-0.00025</text></g><g clip-path="url(#clip30)"><text fill="#595959" fill-opacity="1" font-family="Calibri,Calibri_MSFontService,sans-serif" font-style="normal" font-variant="normal" font-weight="700" font-stretch="normal" font-size="110" text-anchor="start" direction="ltr" writing-mode="lr-tb" unicode-bidi="normal" text-decoration="none" transform="matrix(1 0 0 1 5617.41 3040)">-0.0002</text></g><g clip-path="url(#clip31)"><text fill="#595959" fill-opacity="1" font-family="Calibri,Calibri_MSFontService,sans-serif" font-style="normal" font-variant="normal" font-weight="700" font-stretch="normal" font-size="110" text-anchor="start" direction="ltr" writing-mode="lr-tb" unicode-bidi="normal" text-decoration="none" transform="matrix(1 0 0 1 5561.65 2635)">-0.00015</text></g><g clip-path="url(#clip32)"><text fill="#595959" fill-opacity="1" font-family="Calibri,Calibri_MSFontService,sans-serif" font-style="normal" font-variant="normal" font-weight="700" font-stretch="normal" font-size="110" text-anchor="start" direction="ltr" writing-mode="lr-tb" unicode-bidi="normal" text-decoration="none" transform="matrix(1 0 0 1 5617.41 2230)">-0.0001</text></g><g clip-path="url(#clip33)"><text fill="#595959" fill-opacity="1" font-family="Calibri,Calibri_MSFontService,sans-serif" font-style="normal" font-variant="normal" font-weight="700" font-stretch="normal" font-size="110" text-anchor="start" direction="ltr" writing-mode="lr-tb" unicode-bidi="normal" text-decoration="none" transform="matrix(1 0 0 1 5561.65 1826)">-0.00005</text></g><g clip-path="url(#clip34)"><text fill="#595959" fill-opacity="1" font-family="Calibri,Calibri_MSFontService,sans-serif" font-style="normal" font-variant="normal" font-weight="700" font-stretch="normal" font-size="110" text-anchor="start" direction="ltr" writing-mode="lr-tb" unicode-bidi="normal" text-decoration="none" transform="matrix(1 0 0 1 5903.5 1421)">0</text></g><g clip-path="url(#clip35)"><text fill="#595959" fill-opacity="1" font-family="Calibri,Calibri_MSFontService,sans-serif" font-style="normal" font-variant="normal" font-weight="700" font-stretch="normal" font-size="110" text-anchor="start" direction="ltr" writing-mode="lr-tb" unicode-bidi="normal" text-decoration="none" transform="matrix(1 0 0 1 6033.42 1562)">0</text></g><g clip-path="url(#clip36)"><text fill="#595959" fill-opacity="1" font-family="Calibri,Calibri_MSFontService,sans-serif" font-style="normal" font-variant="normal" font-weight="700" font-stretch="normal" font-size="110" text-anchor="start" direction="ltr" writing-mode="lr-tb" unicode-bidi="normal" text-decoration="none" transform="matrix(1 0 0 1 6511.89 1562)">1</text></g><g clip-path="url(#clip37)"><text fill="#595959" fill-opacity="1" font-family="Calibri,Calibri_MSFontService,sans-serif" font-style="normal" font-variant="normal" font-weight="700" font-stretch="normal" font-size="110" text-anchor="start" direction="ltr" writing-mode="lr-tb" unicode-bidi="normal" text-decoration="none" transform="matrix(1 0 0 1 6990.35 1562)">2</text></g><g clip-path="url(#clip38)"><text fill="#595959" fill-opacity="1" font-family="Calibri,Calibri_MSFontService,sans-serif" font-style="normal" font-variant="normal" font-weight="700" font-stretch="normal" font-size="110" text-anchor="start" direction="ltr" writing-mode="lr-tb" unicode-bidi="normal" text-decoration="none" transform="matrix(1 0 0 1 7468.82 1562)">3</text></g><g clip-path="url(#clip39)"><text fill="#595959" fill-opacity="1" font-family="Calibri,Calibri_MSFontService,sans-serif" font-style="normal" font-variant="normal" font-weight="700" font-stretch="normal" font-size="110" text-anchor="start" direction="ltr" writing-mode="lr-tb" unicode-bidi="normal" text-decoration="none" transform="matrix(1 0 0 1 7947.28 1562)">4</text></g><g clip-path="url(#clip40)"><text fill="#595959" fill-opacity="1" font-family="Calibri,Calibri_MSFontService,sans-serif" font-style="normal" font-variant="normal" font-weight="700" font-stretch="normal" font-size="110" text-anchor="start" direction="ltr" writing-mode="lr-tb" unicode-bidi="normal" text-decoration="none" transform="matrix(1 0 0 1 8425.74 1562)">5</text></g><g clip-path="url(#clip41)"><text fill="#595959" fill-opacity="1" font-family="Calibri,Calibri_MSFontService,sans-serif" font-style="normal" font-variant="normal" font-weight="700" font-stretch="normal" font-size="110" text-anchor="start" direction="ltr" writing-mode="lr-tb" unicode-bidi="normal" text-decoration="none" transform="matrix(1 0 0 1 8904.21 1562)">6</text></g><g clip-path="url(#clip42)"><text fill="#595959" fill-opacity="1" font-family="Calibri,Calibri_MSFontService,sans-serif" font-style="normal" font-variant="normal" font-weight="700" font-stretch="normal" font-size="110" text-anchor="start" direction="ltr" writing-mode="lr-tb" unicode-bidi="normal" text-decoration="none" transform="matrix(1 0 0 1 9382.67 1562)">7</text></g><g clip-path="url(#clip43)"><text fill="#595959" fill-opacity="1" font-family="Calibri,Calibri_MSFontService,sans-serif" font-style="normal" font-variant="normal" font-weight="700" font-stretch="normal" font-size="110" text-anchor="start" direction="ltr" writing-mode="lr-tb" unicode-bidi="normal" text-decoration="none" transform="matrix(1 0 0 1 9861.13 1562)">8</text></g><g clip-path="url(#clip44)"><text fill="#595959" fill-opacity="1" font-family="Calibri,Calibri_MSFontService,sans-serif" font-style="normal" font-variant="normal" font-weight="700" font-stretch="normal" font-size="110" text-anchor="start" direction="ltr" writing-mode="lr-tb" unicode-bidi="normal" text-decoration="none" transform="matrix(1 0 0 1 10339.6 1562)">9</text></g><g clip-path="url(#clip45)"><text fill="#595959" fill-opacity="1" font-family="Calibri,Calibri_MSFontService,sans-serif" font-style="normal" font-variant="normal" font-weight="700" font-stretch="normal" font-size="110" text-anchor="start" direction="ltr" writing-mode="lr-tb" unicode-bidi="normal" text-decoration="none" transform="matrix(1 0 0 1 10790.2 1562)">10</text></g><g clip-path="url(#clip46)"><text fill="#595959" fill-opacity="1" font-family="Calibri,Calibri_MSFontService,sans-serif" font-style="normal" font-variant="normal" font-weight="700" font-stretch="normal" font-size="110" text-anchor="start" direction="ltr" writing-mode="lr-tb" unicode-bidi="normal" text-decoration="none" transform="matrix(6.12323e-17 -1 1 6.12323e-17 5518.64 4017)">Reported oxygen relaxivity (r1) in s</text></g><g clip-path="url(#clip47)"><text fill="#595959" fill-opacity="1" font-family="Calibri,Calibri_MSFontService,sans-serif" font-style="normal" font-variant="normal" font-weight="700" font-stretch="normal" font-size="110" text-anchor="start" direction="ltr" writing-mode="lr-tb" unicode-bidi="normal" text-decoration="none" transform="matrix(6.12323e-17 -1 1 6.12323e-17 5518.64 2431)">-</text></g><g clip-path="url(#clip48)"><text fill="#595959" fill-opacity="1" font-family="Calibri,Calibri_MSFontService,sans-serif" font-style="normal" font-variant="normal" font-weight="700" font-stretch="normal" font-size="110" text-anchor="start" direction="ltr" writing-mode="lr-tb" unicode-bidi="normal" text-decoration="none" transform="matrix(6.12323e-17 -1 1 6.12323e-17 5518.64 2398)">1/mmHg</text></g><g clip-path="url(#clip49)"><text fill="#595959" fill-opacity="1" font-family="Calibri,Calibri_MSFontService,sans-serif" font-style="normal" font-variant="normal" font-weight="700" font-stretch="normal" font-size="110" text-anchor="start" direction="ltr" writing-mode="lr-tb" unicode-bidi="normal" text-decoration="none" transform="matrix(1 0 0 1 7778.34 4736)">MRI B0 Field Strength in Tesla</text></g><g clip-path="url(#clip50)"><text fill="#595959" fill-opacity="1" font-family="Calibri,Calibri_MSFontService,sans-serif" font-style="normal" font-variant="normal" font-weight="700" font-stretch="normal" font-size="132" text-anchor="start" direction="ltr" writing-mode="lr-tb" unicode-bidi="normal" text-decoration="none" transform="matrix(1 0 0 1 6166.17 1301)">Oxygen Relaxivity vs Field Strength </text></g><g clip-path="url(#clip51)"><text fill="#595959" fill-opacity="1" font-family="Calibri,Calibri_MSFontService,sans-serif" font-style="normal" font-variant="normal" font-weight="700" font-stretch="normal" font-size="132" text-anchor="start" direction="ltr" writing-mode="lr-tb" unicode-bidi="normal" text-decoration="none" transform="matrix(1 0 0 1 8102.13 1301)">-</text></g><g clip-path="url(#clip52)"><text fill="#595959" fill-opacity="1" font-family="Calibri,Calibri_MSFontService,sans-serif" font-style="normal" font-variant="normal" font-weight="700" font-stretch="normal" font-size="132" text-anchor="start" direction="ltr" writing-mode="lr-tb" unicode-bidi="normal" text-decoration="none" transform="matrix(1 0 0 1 8172.37 1301)">Water, Saline, Vitreous Solutions Only</text></g><rect x="5356.5" y="1095.5" width="5596" height="3728" stroke="#D9D9D9" stroke-width="3.4375" stroke-linecap="butt" stroke-linejoin="round" stroke-miterlimit="10" stroke-opacity="1" fill="none"/></g></svg>