<svg width="5198" height="3318" xmlns="http://www.w3.org/2000/svg" xmlns:xlink="http://www.w3.org/1999/xlink" overflow="hidden"><defs><clipPath id="clip0"><rect x="45" y="1737" width="5198" height="3318"/></clipPath><clipPath id="clip1"><rect x="50" y="1742" width="5189" height="3311"/></clipPath><clipPath id="clip2"><rect x="50" y="1742" width="5189" height="3311"/></clipPath><clipPath id="clip3"><rect x="50" y="1742" width="5189" height="3311"/></clipPath><clipPath id="clip4"><rect x="50" y="1742" width="5189" height="3311"/></clipPath><clipPath id="clip5"><rect x="50" y="1742" width="5189" height="3311"/></clipPath><clipPath id="clip6"><rect x="50" y="1742" width="5189" height="3311"/></clipPath><clipPath id="clip7"><rect x="50" y="1742" width="5189" height="3311"/></clipPath><clipPath id="clip8"><rect x="50" y="1742" width="5189" height="3311"/></clipPath><clipPath id="clip9"><rect x="50" y="1742" width="5189" height="3311"/></clipPath><clipPath id="clip10"><rect x="50" y="1742" width="5189" height="3311"/></clipPath><clipPath id="clip11"><rect x="50" y="1742" width="5189" height="3311"/></clipPath><clipPath id="clip12"><rect x="50" y="1742" width="5189" height="3311"/></clipPath><clipPath id="clip13"><rect x="50" y="1742" width="5189" height="3311"/></clipPath><clipPath id="clip14"><rect x="50" y="1742" width="5189" height="3311"/></clipPath><clipPath id="clip15"><rect x="50" y="1742" width="5189" height="3311"/></clipPath><clipPath id="clip16"><rect x="50" y="1742" width="5189" height="3311"/></clipPath><clipPath id="clip17"><rect x="50" y="1742" width="5189" height="3311"/></clipPath><clipPath id="clip18"><rect x="50" y="1742" width="5189" height="3311"/></clipPath><clipPath id="clip19"><rect x="50" y="1742" width="5189" height="3311"/></clipPath><clipPath id="clip20"><rect x="50" y="1742" width="5189" height="3311"/></clipPath><clipPath id="clip21"><rect x="50" y="1742" width="5189" height="3311"/></clipPath><clipPath id="clip22"><rect x="50" y="1742" width="5189" height="3311"/></clipPath><clipPath id="clip23"><rect x="50" y="1742" width="5189" height="3311"/></clipPath><clipPath id="clip24"><rect x="50" y="1742" width="5189" height="3311"/></clipPath><clipPath id="clip25"><rect x="50" y="1742" width="5189" height="3311"/></clipPath><clipPath id="clip26"><rect x="50" y="1742" width="5189" height="3311"/></clipPath><clipPath id="clip27"><rect x="50" y="1742" width="5189" height="3311"/></clipPath><clipPath id="clip28"><rect x="755" y="2034" width="4405" height="2820"/></clipPath><clipPath id="clip29"><rect x="50" y="1742" width="5189" height="3311"/></clipPath><clipPath id="clip30"><rect x="50" y="1742" width="5189" height="3311"/></clipPath><clipPath id="clip31"><rect x="50" y="1742" width="5189" height="3311"/></clipPath><clipPath id="clip32"><rect x="50" y="1742" width="5189" height="3311"/></clipPath><clipPath id="clip33"><rect x="50" y="1742" width="5189" height="3311"/></clipPath><clipPath id="clip34"><rect x="50" y="1742" width="5189" height="3311"/></clipPath><clipPath id="clip35"><rect x="50" y="1742" width="5189" height="3311"/></clipPath><clipPath id="clip36"><rect x="50" y="1742" width="5189" height="3311"/></clipPath><clipPath id="clip37"><rect x="50" y="1742" width="5189" height="3311"/></clipPath><clipPath id="clip38"><rect x="50" y="1742" width="5189" height="3311"/></clipPath><clipPath id="clip39"><rect x="50" y="1742" width="5189" height="3311"/></clipPath><clipPath id="clip40"><rect x="50" y="1742" width="5189" height="3311"/></clipPath><clipPath id="clip41"><rect x="50" y="1742" width="5189" height="3311"/></clipPath><clipPath id="clip42"><rect x="50" y="1742" width="5189" height="3311"/></clipPath><clipPath id="clip43"><rect x="50" y="1742" width="5189" height="3311"/></clipPath><clipPath id="clip44"><rect x="50" y="1742" width="5189" height="3311"/></clipPath><clipPath id="clip45"><rect x="50" y="1742" width="5189" height="3311"/></clipPath><clipPath id="clip46"><rect x="50" y="1742" width="5189" height="3311"/></clipPath><clipPath id="clip47"><rect x="50" y="1742" width="5189" height="3311"/></clipPath><clipPath id="clip48"><rect x="50" y="1742" width="5189" height="3311"/></clipPath><clipPath id="clip49"><rect x="50" y="1742" width="5189" height="3311"/></clipPath><clipPath id="clip50"><rect x="50" y="1742" width="5189" height="3311"/></clipPath><clipPath id="clip51"><rect x="50" y="1742" width="5189" height="3311"/></clipPath><clipPath id="clip52"><rect x="50" y="1742" width="5189" height="3311"/></clipPath><clipPath id="clip53"><rect x="50" y="1742" width="5189" height="3311"/></clipPath><clipPath id="clip54"><rect x="50" y="1742" width="5189" height="3311"/></clipPath><clipPath id="clip55"><rect x="50" y="1742" width="5189" height="3311"/></clipPath><clipPath id="clip56"><rect x="50" y="1742" width="5189" height="3311"/></clipPath><clipPath id="clip57"><rect x="50" y="1742" width="5189" height="3311"/></clipPath><clipPath id="clip58"><rect x="50" y="1742" width="5189" height="3311"/></clipPath><clipPath id="clip59"><rect x="50" y="1742" width="5189" height="3311"/></clipPath><clipPath id="clip60"><rect x="50" y="1742" width="5189" height="3311"/></clipPath><clipPath id="clip61"><rect x="50" y="1742" width="5189" height="3311"/></clipPath><clipPath id="clip62"><rect x="50" y="1742" width="5189" height="3311"/></clipPath></defs><g clip-path="url(#clip0)" transform="translate(-45 -1737)"><rect x="49.9998" y="1742" width="5189" height="3311" fill="#FFFFFF" fill-opacity="1"/><g clip-path="url(#clip1)"><path d="M755.5 4854.5 5160.5 4854.5M755.5 4572.65 5160.5 4572.65M755.5 4290.64 5160.5 4290.64M755.5 4008.63 5160.5 4008.63M755.5 3726.62 5160.5 3726.62M755.5 3444.61 5160.5 3444.61M755.5 3162.6 5160.5 3162.6M755.5 2880.59 5160.5 2880.59M755.5 2598.59 5160.5 2598.59M755.5 2316.58 5160.5 2316.58" stroke="#D9D9D9" stroke-width="3.4375" stroke-linecap="butt" stroke-linejoin="round" stroke-miterlimit="10" stroke-opacity="1" fill="none" fill-rule="nonzero"/></g><g clip-path="url(#clip2)"><path d="M1244.54 2034.5 1244.54 4854.5M1734.56 2034.5 1734.56 4854.5M2223.57 2034.5 2223.57 4854.5M2713.59 2034.5 2713.59 4854.5M3202.61 2034.5 3202.61 4854.5M3692.62 2034.5 3692.62 4854.5M4181.64 2034.5 4181.64 4854.5M4671.65 2034.5 4671.65 4854.5M5160.5 2034.5 5160.5 4854.5" stroke="#D9D9D9" stroke-width="3.4375" stroke-linecap="butt" stroke-linejoin="round" stroke-miterlimit="10" stroke-opacity="1" fill="none" fill-rule="nonzero"/></g><g clip-path="url(#clip3)"><path d="M0 0 0.000360892 2820" stroke="#BFBFBF" stroke-width="3.4375" stroke-linecap="butt" stroke-linejoin="round" stroke-miterlimit="10" stroke-opacity="1" fill="none" fill-rule="evenodd" transform="matrix(1 0 0 -1 755.5 4854.5)"/></g><g clip-path="url(#clip4)"><path d="M755.5 2034.5 5160.5 2034.5" stroke="#BFBFBF" stroke-width="3.4375" stroke-linecap="butt" stroke-linejoin="round" stroke-miterlimit="10" stroke-opacity="1" fill="none" fill-rule="evenodd"/></g><g clip-path="url(#clip5)"><path d="M3082.68 3258.65C3082.68 3273.56 3070.59 3285.64 3055.68 3285.64 3040.77 3285.64 3028.68 3273.56 3028.68 3258.65 3028.68 3243.73 3040.77 3231.65 3055.68 3231.65 3070.59 3231.65 3082.68 3243.73 3082.68 3258.65Z" stroke="#5DCEAF" stroke-width="3.4375" stroke-linecap="butt" stroke-linejoin="round" stroke-miterlimit="10" stroke-opacity="1" fill="#5DCEAF" fill-rule="nonzero" fill-opacity="1"/><path d="M1516.68 3557.65C1516.68 3572.56 1504.59 3584.64 1489.68 3584.64 1474.77 3584.64 1462.68 3572.56 1462.68 3557.65 1462.68 3542.73 1474.77 3530.65 1489.68 3530.65 1504.59 3530.65 1516.68 3542.73 1516.68 3557.65Z" stroke="#5DCEAF" stroke-width="3.4375" stroke-linecap="butt" stroke-linejoin="round" stroke-miterlimit="10" stroke-opacity="1" fill="#5DCEAF" fill-rule="nonzero" fill-opacity="1"/><path d="M2250.68 2942.65C2250.68 2957.56 2238.59 2969.64 2223.68 2969.64 2208.77 2969.64 2196.68 2957.56 2196.68 2942.65 2196.68 2927.73 2208.77 2915.65 2223.68 2915.65 2238.59 2915.65 2250.68 2927.73 2250.68 2942.65Z" stroke="#5DCEAF" stroke-width="3.4375" stroke-linecap="butt" stroke-linejoin="round" stroke-miterlimit="10" stroke-opacity="1" fill="#5DCEAF" fill-rule="nonzero" fill-opacity="1"/><path d="M1516.68 3991.65C1516.68 4006.56 1504.59 4018.65 1489.68 4018.65 1474.77 4018.65 1462.68 4006.56 1462.68 3991.65 1462.68 3976.73 1474.77 3964.65 1489.68 3964.65 1504.59 3964.65 1516.68 3976.73 1516.68 3991.65Z" stroke="#5DCEAF" stroke-width="3.4375" stroke-linecap="butt" stroke-linejoin="round" stroke-miterlimit="10" stroke-opacity="1" fill="#5DCEAF" fill-rule="nonzero" fill-opacity="1"/><path d="M1516.68 4065.65C1516.68 4080.56 1504.59 4092.64 1489.68 4092.64 1474.77 4092.64 1462.68 4080.56 1462.68 4065.65 1462.68 4050.73 1474.77 4038.65 1489.68 4038.65 1504.59 4038.65 1516.68 4050.73 1516.68 4065.65Z" stroke="#5DCEAF" stroke-width="3.4375" stroke-linecap="butt" stroke-linejoin="round" stroke-miterlimit="10" stroke-opacity="1" fill="#5DCEAF" fill-rule="nonzero" fill-opacity="1"/><path d="M1051.68 4685.65C1051.68 4700.56 1039.59 4712.65 1024.68 4712.65 1009.77 4712.65 997.677 4700.56 997.677 4685.65 997.677 4670.73 1009.77 4658.65 1024.68 4658.65 1039.59 4658.65 1051.68 4670.73 1051.68 4685.65Z" stroke="#5DCEAF" stroke-width="3.4375" stroke-linecap="butt" stroke-linejoin="round" stroke-miterlimit="10" stroke-opacity="1" fill="#5DCEAF" fill-rule="nonzero" fill-opacity="1"/><path d="M1516.68 3438.65C1516.68 3453.56 1504.59 3465.64 1489.68 3465.64 1474.77 3465.64 1462.68 3453.56 1462.68 3438.65 1462.68 3423.73 1474.77 3411.65 1489.68 3411.65 1504.59 3411.65 1516.68 3423.73 1516.68 3438.65Z" stroke="#5DCEAF" stroke-width="3.4375" stroke-linecap="butt" stroke-linejoin="round" stroke-miterlimit="10" stroke-opacity="1" fill="#5DCEAF" fill-rule="nonzero" fill-opacity="1"/><path d="M1516.68 3783.65C1516.68 3798.56 1504.59 3810.65 1489.68 3810.65 1474.77 3810.65 1462.68 3798.56 1462.68 3783.65 1462.68 3768.73 1474.77 3756.65 1489.68 3756.65 1504.59 3756.65 1516.68 3768.73 1516.68 3783.65Z" stroke="#5DCEAF" stroke-width="3.4375" stroke-linecap="butt" stroke-linejoin="round" stroke-miterlimit="10" stroke-opacity="1" fill="#5DCEAF" fill-rule="nonzero" fill-opacity="1"/><path d="M2250.68 3185.65C2250.68 3200.56 2238.59 3212.64 2223.68 3212.64 2208.77 3212.64 2196.68 3200.56 2196.68 3185.65 2196.68 3170.73 2208.77 3158.65 2223.68 3158.65 2238.59 3158.65 2250.68 3170.73 2250.68 3185.65Z" stroke="#5DCEAF" stroke-width="3.4375" stroke-linecap="butt" stroke-linejoin="round" stroke-miterlimit="10" stroke-opacity="1" fill="#5DCEAF" fill-rule="nonzero" fill-opacity="1"/><path d="M2250.68 3190.65C2250.68 3205.56 2238.59 3217.65 2223.68 3217.65 2208.77 3217.65 2196.68 3205.56 2196.68 3190.65 2196.68 3175.73 2208.77 3163.65 2223.68 3163.65 2238.59 3163.65 2250.68 3175.73 2250.68 3190.65Z" stroke="#5DCEAF" stroke-width="3.4375" stroke-linecap="butt" stroke-linejoin="round" stroke-miterlimit="10" stroke-opacity="1" fill="#5DCEAF" fill-rule="nonzero" fill-opacity="1"/><path d="M2250.68 3224.65C2250.68 3239.56 2238.59 3251.64 2223.68 3251.64 2208.77 3251.64 2196.68 3239.56 2196.68 3224.65 2196.68 3209.73 2208.77 3197.65 2223.68 3197.65 2238.59 3197.65 2250.68 3209.73 2250.68 3224.65Z" stroke="#5DCEAF" stroke-width="3.4375" stroke-linecap="butt" stroke-linejoin="round" stroke-miterlimit="10" stroke-opacity="1" fill="#5DCEAF" fill-rule="nonzero" fill-opacity="1"/><path d="M4918.68 2654.65C4918.68 2669.56 4906.59 2681.64 4891.68 2681.64 4876.77 2681.64 4864.68 2669.56 4864.68 2654.65 4864.68 2639.73 4876.77 2627.65 4891.68 2627.65 4906.59 2627.65 4918.68 2639.73 4918.68 2654.65Z" stroke="#5DCEAF" stroke-width="3.4375" stroke-linecap="butt" stroke-linejoin="round" stroke-miterlimit="10" stroke-opacity="1" fill="#5DCEAF" fill-rule="nonzero" fill-opacity="1"/><path d="M4918.68 2824.65C4918.68 2839.56 4906.59 2851.65 4891.68 2851.65 4876.77 2851.65 4864.68 2839.56 4864.68 2824.65 4864.68 2809.73 4876.77 2797.65 4891.68 2797.65 4906.59 2797.65 4918.68 2809.73 4918.68 2824.65Z" stroke="#5DCEAF" stroke-width="3.4375" stroke-linecap="butt" stroke-linejoin="round" stroke-miterlimit="10" stroke-opacity="1" fill="#5DCEAF" fill-rule="nonzero" fill-opacity="1"/><path d="M4918.68 3444.65C4918.68 3459.56 4906.59 3471.64 4891.68 3471.64 4876.77 3471.64 4864.68 3459.56 4864.68 3444.65 4864.68 3429.73 4876.77 3417.65 4891.68 3417.65 4906.59 3417.65 4918.68 3429.73 4918.68 3444.65Z" stroke="#5DCEAF" stroke-width="3.4375" stroke-linecap="butt" stroke-linejoin="round" stroke-miterlimit="10" stroke-opacity="1" fill="#5DCEAF" fill-rule="nonzero" fill-opacity="1"/><path d="M1516.68 4008.65C1516.68 4023.56 1504.59 4035.64 1489.68 4035.64 1474.77 4035.64 1462.68 4023.56 1462.68 4008.65 1462.68 3993.73 1474.77 3981.65 1489.68 3981.65 1504.59 3981.65 1516.68 3993.73 1516.68 4008.65Z" stroke="#5DCEAF" stroke-width="3.4375" stroke-linecap="butt" stroke-linejoin="round" stroke-miterlimit="10" stroke-opacity="1" fill="#5DCEAF" fill-rule="nonzero" fill-opacity="1"/><path d="M1516.68 3106.65C1516.68 3121.56 1504.59 3133.64 1489.68 3133.64 1474.77 3133.64 1462.68 3121.56 1462.68 3106.65 1462.68 3091.73 1474.77 3079.65 1489.68 3079.65 1504.59 3079.65 1516.68 3091.73 1516.68 3106.65Z" stroke="#5DCEAF" stroke-width="3.4375" stroke-linecap="butt" stroke-linejoin="round" stroke-miterlimit="10" stroke-opacity="1" fill="#5DCEAF" fill-rule="nonzero" fill-opacity="1"/><path d="M4208.68 3162.65C4208.68 3177.56 4196.59 3189.64 4181.68 3189.64 4166.77 3189.64 4154.68 3177.56 4154.68 3162.65 4154.68 3147.73 4166.77 3135.65 4181.68 3135.65 4196.59 3135.65 4208.68 3147.73 4208.68 3162.65Z" stroke="#5DCEAF" stroke-width="3.4375" stroke-linecap="butt" stroke-linejoin="round" stroke-miterlimit="10" stroke-opacity="1" fill="#5DCEAF" fill-rule="nonzero" fill-opacity="1"/><path d="M4208.68 3726.65C4208.68 3741.56 4196.59 3753.65 4181.68 3753.65 4166.77 3753.65 4154.68 3741.56 4154.68 3726.65 4154.68 3711.73 4166.77 3699.65 4181.68 3699.65 4196.59 3699.65 4208.68 3711.73 4208.68 3726.65Z" stroke="#5DCEAF" stroke-width="3.4375" stroke-linecap="butt" stroke-linejoin="round" stroke-miterlimit="10" stroke-opacity="1" fill="#5DCEAF" fill-rule="nonzero" fill-opacity="1"/></g><g clip-path="url(#clip6)"><text fill="#404040" fill-opacity="1" font-family="Calibri,Calibri_MSFontService,sans-serif" font-style="normal" font-variant="normal" font-weight="700" font-stretch="normal" font-size="64" text-anchor="start" direction="ltr" writing-mode="lr-tb" unicode-bidi="normal" text-decoration="none" transform="matrix(1 0 0 1 2722.5 3368)">Matsumoto 2006 (saline)</text></g><g clip-path="url(#clip7)"><text fill="#404040" fill-opacity="1" font-family="Calibri,Calibri_MSFontService,sans-serif" font-style="normal" font-variant="normal" font-weight="700" font-stretch="normal" font-size="64" text-anchor="start" direction="ltr" writing-mode="lr-tb" unicode-bidi="normal" text-decoration="none" transform="matrix(1 0 0 1 1173.85 3667)">Zaharchuk 2005 (saline)</text></g><g clip-path="url(#clip8)"><text fill="#404040" fill-opacity="1" font-family="Calibri,Calibri_MSFontService,sans-serif" font-style="normal" font-variant="normal" font-weight="700" font-stretch="normal" font-size="64" text-anchor="start" direction="ltr" writing-mode="lr-tb" unicode-bidi="normal" text-decoration="none" transform="matrix(1 0 0 1 1928.49 3052)">Pilkinton 2012 (water)</text></g><g clip-path="url(#clip9)"><text fill="#404040" fill-opacity="1" font-family="Calibri,Calibri_MSFontService,sans-serif" font-style="normal" font-variant="normal" font-weight="700" font-stretch="normal" font-size="64" text-anchor="start" direction="ltr" writing-mode="lr-tb" unicode-bidi="normal" text-decoration="none" transform="matrix(1 0 0 1 1167.78 4101)">Simpson 2013 (vitreous)</text></g><g clip-path="url(#clip10)"><text fill="#404040" fill-opacity="1" font-family="Calibri,Calibri_MSFontService,sans-serif" font-style="normal" font-variant="normal" font-weight="700" font-stretch="normal" font-size="64" text-anchor="start" direction="ltr" writing-mode="lr-tb" unicode-bidi="normal" text-decoration="none" transform="matrix(1 0 0 1 1198.66 4174)">Simpson 2013 (saline)</text></g><g clip-path="url(#clip11)"><text fill="#404040" fill-opacity="1" font-family="Calibri,Calibri_MSFontService,sans-serif" font-style="normal" font-variant="normal" font-weight="700" font-stretch="normal" font-size="64" text-anchor="start" direction="ltr" writing-mode="lr-tb" unicode-bidi="normal" text-decoration="none" transform="matrix(1 0 0 1 595.357 4795)">Campbell</text></g><g clip-path="url(#clip12)"><text fill="#404040" fill-opacity="1" font-family="Calibri,Calibri_MSFontService,sans-serif" font-style="normal" font-variant="normal" font-weight="700" font-stretch="normal" font-size="64" text-anchor="start" direction="ltr" writing-mode="lr-tb" unicode-bidi="normal" text-decoration="none" transform="matrix(1 0 0 1 845.928 4795)">-</text></g><g clip-path="url(#clip13)"><text fill="#404040" fill-opacity="1" font-family="Calibri,Calibri_MSFontService,sans-serif" font-style="normal" font-variant="normal" font-weight="700" font-stretch="normal" font-size="64" text-anchor="start" direction="ltr" writing-mode="lr-tb" unicode-bidi="normal" text-decoration="none" transform="matrix(1 0 0 1 865.567 4795)">Washburn 2019 (lung)</text></g><g clip-path="url(#clip14)"><text fill="#404040" fill-opacity="1" font-family="Calibri,Calibri_MSFontService,sans-serif" font-style="normal" font-variant="normal" font-weight="700" font-stretch="normal" font-size="64" text-anchor="start" direction="ltr" writing-mode="lr-tb" unicode-bidi="normal" text-decoration="none" transform="matrix(1 0 0 1 1174.24 3548)">Zaharchuk 2006 (water)</text></g><g clip-path="url(#clip15)"><text fill="#404040" fill-opacity="1" font-family="Calibri,Calibri_MSFontService,sans-serif" font-style="normal" font-variant="normal" font-weight="700" font-stretch="normal" font-size="64" text-anchor="start" direction="ltr" writing-mode="lr-tb" unicode-bidi="normal" text-decoration="none" transform="matrix(1 0 0 1 1060.41 3892)">Campbell</text></g><g clip-path="url(#clip16)"><text fill="#404040" fill-opacity="1" font-family="Calibri,Calibri_MSFontService,sans-serif" font-style="normal" font-variant="normal" font-weight="700" font-stretch="normal" font-size="64" text-anchor="start" direction="ltr" writing-mode="lr-tb" unicode-bidi="normal" text-decoration="none" transform="matrix(1 0 0 1 1310.98 3892)">-</text></g><g clip-path="url(#clip17)"><text fill="#404040" fill-opacity="1" font-family="Calibri,Calibri_MSFontService,sans-serif" font-style="normal" font-variant="normal" font-weight="700" font-stretch="normal" font-size="64" text-anchor="start" direction="ltr" writing-mode="lr-tb" unicode-bidi="normal" text-decoration="none" transform="matrix(1 0 0 1 1330.62 3892)">Washburn 2019 (lung)</text></g><g clip-path="url(#clip18)"><text fill="#404040" fill-opacity="1" font-family="Calibri,Calibri_MSFontService,sans-serif" font-style="normal" font-variant="normal" font-weight="700" font-stretch="normal" font-size="64" text-anchor="start" direction="ltr" writing-mode="lr-tb" unicode-bidi="normal" text-decoration="none" transform="matrix(1 0 0 1 1915.14 3294)">Muir 2013 (34 degrees)</text></g><g clip-path="url(#clip19)"><text fill="#404040" fill-opacity="1" font-family="Calibri,Calibri_MSFontService,sans-serif" font-style="normal" font-variant="normal" font-weight="700" font-stretch="normal" font-size="64" text-anchor="start" direction="ltr" writing-mode="lr-tb" unicode-bidi="normal" text-decoration="none" transform="matrix(1 0 0 1 1915.14 3300)">Muir 2013 (37 degrees)</text></g><g clip-path="url(#clip20)"><text fill="#404040" fill-opacity="1" font-family="Calibri,Calibri_MSFontService,sans-serif" font-style="normal" font-variant="normal" font-weight="700" font-stretch="normal" font-size="64" text-anchor="start" direction="ltr" writing-mode="lr-tb" unicode-bidi="normal" text-decoration="none" transform="matrix(1 0 0 1 1915.14 3334)">Muir 2013 (40 degrees)</text></g><g clip-path="url(#clip21)"><text fill="#404040" fill-opacity="1" font-family="Calibri,Calibri_MSFontService,sans-serif" font-style="normal" font-variant="normal" font-weight="700" font-stretch="normal" font-size="64" text-anchor="start" direction="ltr" writing-mode="lr-tb" unicode-bidi="normal" text-decoration="none" transform="matrix(1 0 0 1 4590.86 2764)">D'othee 2003 (plasma)</text></g><g clip-path="url(#clip22)"><text fill="#404040" fill-opacity="1" font-family="Calibri,Calibri_MSFontService,sans-serif" font-style="normal" font-variant="normal" font-weight="700" font-stretch="normal" font-size="64" text-anchor="start" direction="ltr" writing-mode="lr-tb" unicode-bidi="normal" text-decoration="none" transform="matrix(1 0 0 1 4608.76 2933)">D'othee 2003 (saline)</text></g><g clip-path="url(#clip23)"><text fill="#404040" fill-opacity="1" font-family="Calibri,Calibri_MSFontService,sans-serif" font-style="normal" font-variant="normal" font-weight="700" font-stretch="normal" font-size="64" text-anchor="start" direction="ltr" writing-mode="lr-tb" unicode-bidi="normal" text-decoration="none" transform="matrix(1 0 0 1 4609.72 3554)">D'othee 2003 (blood)</text></g><g clip-path="url(#clip24)"><text fill="#404040" fill-opacity="1" font-family="Calibri,Calibri_MSFontService,sans-serif" font-style="normal" font-variant="normal" font-weight="700" font-stretch="normal" font-size="64" text-anchor="start" direction="ltr" writing-mode="lr-tb" unicode-bidi="normal" text-decoration="none" transform="matrix(1 0 0 1 1207.47 4118)">D'othee 2003 (blood)</text></g><g clip-path="url(#clip25)"><text fill="#404040" fill-opacity="1" font-family="Calibri,Calibri_MSFontService,sans-serif" font-style="normal" font-variant="normal" font-weight="700" font-stretch="normal" font-size="64" text-anchor="start" direction="ltr" writing-mode="lr-tb" unicode-bidi="normal" text-decoration="none" transform="matrix(1 0 0 1 1206.51 3215)">D'othee 2003 (saline)</text></g><g clip-path="url(#clip26)"><text fill="#404040" fill-opacity="1" font-family="Calibri,Calibri_MSFontService,sans-serif" font-style="normal" font-variant="normal" font-weight="700" font-stretch="normal" font-size="64" text-anchor="start" direction="ltr" writing-mode="lr-tb" unicode-bidi="normal" text-decoration="none" transform="matrix(1 0 0 1 3844.21 3272)">Bluemke 7T (NB solution)</text></g><g clip-path="url(#clip27)"><text fill="#404040" fill-opacity="1" font-family="Calibri,Calibri_MSFontService,sans-serif" font-style="normal" font-variant="normal" font-weight="700" font-stretch="normal" font-size="64" text-anchor="start" direction="ltr" writing-mode="lr-tb" unicode-bidi="normal" text-decoration="none" transform="matrix(1 0 0 1 3773.87 3836)">Thompson 2019 (gel phantom)</text></g><g clip-path="url(#clip28)"><path d="M1.64593-7.85014 1.66163-7.84685C5.99714-6.93782 8.77486-2.68629 7.86584 1.64922 6.95682 5.98474 2.70528 8.76245-1.63023 7.85343L-1.64593 7.85014C-5.98144 6.94112-8.75916 2.68958-7.85014-1.64593-6.94112-5.98144-2.68958-8.75916 1.64593-7.85014ZM33.062-1.26316 33.0777-1.25987C37.4132-0.350958 40.191 3.90051 39.2821 8.23604 38.3732 12.5716 34.1218 15.3494 29.7862 14.4405L29.7705 14.4372C25.435 13.5283 22.6572 9.27682 23.5661 4.94128 24.475 0.605749 28.7265-2.17208 33.062-1.26316ZM64.4785 5.32391 64.4942 5.3272C68.8297 6.23627 71.6074 10.4878 70.6983 14.8233 69.7893 19.1588 65.5377 21.9365 61.2022 21.0274L61.1865 21.0242C56.851 20.1151 54.0733 15.8635 54.9824 11.528 55.8915 7.19251 60.143 4.41484 64.4785 5.32391ZM95.8948 11.9109 95.9105 11.9142C100.246 12.8233 103.024 17.0749 102.115 21.4104 101.206 25.7459 96.9539 28.5235 92.6184 27.6145L92.6027 27.6112C88.2672 26.7021 85.4896 22.4505 86.3986 18.115 87.3077 13.7795 91.5593 11.0019 95.8948 11.9109ZM127.312 18.4981 127.327 18.5014C131.663 19.4108 134.44 23.6626 133.531 27.998 132.621 32.3335 128.369 35.1108 124.034 34.2013L124.018 34.198C119.683 33.2886 116.906 29.0368 117.815 24.7014 118.724 20.3659 122.976 17.5886 127.312 18.4981ZM158.728 25.0851 158.744 25.0884C163.079 25.9978 165.856 30.2496 164.947 34.5851 164.037 38.9205 159.786 41.6978 155.45 40.7884L155.435 40.7851C151.099 39.8756 148.322 35.6238 149.231 31.2884 150.141 26.953 154.393 24.1757 158.728 25.0851ZM190.144 31.6721 190.16 31.6754C194.495 32.5849 197.273 36.8367 196.363 41.1721 195.454 45.5075 191.202 48.2848 186.866 47.3754L186.851 47.3721C182.515 46.4626 179.738 42.2108 180.648 37.8754 181.557 33.54 185.809 30.7627 190.144 31.6721ZM221.56 38.2591 221.576 38.2624C225.912 39.1719 228.689 43.4237 227.779 47.7591 226.87 52.0945 222.618 54.8718 218.283 53.9624L218.267 53.9591C213.932 53.0497 211.154 48.7979 212.064 44.4624 212.973 40.127 217.225 37.3497 221.56 38.2591ZM252.977 44.8462 252.992 44.8494C257.328 45.7589 260.105 50.0107 259.196 54.3461 258.286 58.6815 254.034 61.4588 249.699 60.5494L249.683 60.5461C245.348 59.6367 242.571 55.3849 243.48 51.0494 244.389 46.714 248.641 43.9367 252.977 44.8462ZM284.393 51.4332 284.409 51.4365C288.744 52.3459 291.521 56.5977 290.612 60.9331 289.702 65.2685 285.451 68.0459 281.115 67.1364L281.1 67.1331C276.764 66.2237 273.987 61.9719 274.896 57.6365 275.806 53.301 280.057 50.5237 284.393 51.4332ZM315.809 58.0202 315.825 58.0235C320.16 58.9329 322.938 63.1847 322.028 67.5201 321.119 71.8556 316.867 74.6329 312.531 73.7234L312.516 73.7201C308.18 72.8107 305.403 68.5589 306.312 64.2235 307.222 59.888 311.474 57.1107 315.809 58.0202ZM347.225 64.6072 347.241 64.6105C351.577 65.5199 354.354 69.7717 353.444 74.1072 352.535 78.4426 348.283 81.2199 343.948 80.3104L343.932 80.3072C339.597 79.3977 336.819 75.1459 337.729 70.8105 338.638 66.4751 342.89 63.6978 347.225 64.6072ZM378.642 71.1942 378.657 71.1975C382.993 72.1069 385.77 76.3587 384.861 80.6942 383.951 85.0296 379.699 87.8069 375.364 86.8975L375.348 86.8942C371.013 85.9847 368.236 81.7329 369.145 77.3975 370.054 73.0621 374.306 70.2848 378.642 71.1942ZM410.058 77.7812 410.074 77.7845C414.409 78.694 417.186 82.9458 416.277 87.2812 415.367 91.6166 411.116 94.3939 406.78 93.4845L406.764 93.4812C402.429 92.5717 399.652 88.3199 400.561 83.9845 401.471 79.6491 405.722 76.8718 410.058 77.7812ZM441.474 84.3682 441.49 84.3715C445.825 85.281 448.603 89.5328 447.693 93.8682 446.784 98.2036 442.532 100.981 438.196 100.071L438.181 100.068C433.845 99.1587 431.068 94.907 431.977 90.5715 432.887 86.2361 437.139 83.4588 441.474 84.3682ZM472.89 90.9553 472.906 90.9585C477.241 91.868 480.019 96.1198 479.109 100.455 478.2 104.791 473.948 107.568 469.613 106.659L469.597 106.655C465.262 105.746 462.484 101.494 463.394 97.1585 464.303 92.8231 468.555 90.0458 472.89 90.9553ZM504.307 97.5423 504.322 97.5455C508.658 98.455 511.435 102.707 510.526 107.042 509.616 111.378 505.364 114.155 501.029 113.246L501.013 113.242C496.678 112.333 493.9 108.081 494.81 103.746 495.719 99.4101 499.971 96.6328 504.307 97.5423ZM535.723 104.129 535.738 104.133C540.074 105.042 542.851 109.294 541.942 113.629 541.032 117.965 536.781 120.742 532.445 119.833L532.429 119.829C528.094 118.92 525.317 114.668 526.226 110.333 527.135 105.997 531.387 103.22 535.723 104.129ZM567.139 110.716 567.155 110.72C571.49 111.629 574.267 115.881 573.358 120.216 572.449 124.552 568.197 127.329 563.861 126.42L563.846 126.416C559.51 125.507 556.733 121.255 557.642 116.92 558.552 112.584 562.804 109.807 567.139 110.716ZM598.555 117.303 598.571 117.307C602.906 118.216 605.684 122.468 604.774 126.803 603.865 131.139 599.613 133.916 595.278 133.007L595.262 133.003C590.926 132.094 588.149 127.842 589.059 123.507 589.968 119.171 594.22 116.394 598.555 117.303ZM629.971 123.89 629.987 123.894C634.323 124.803 637.1 129.055 636.19 133.39 635.281 137.726 631.029 140.503 626.694 139.594L626.678 139.59C622.343 138.681 619.565 134.429 620.475 130.094 621.384 125.758 625.636 122.981 629.971 123.89ZM661.388 130.477 661.403 130.481C665.739 131.39 668.516 135.642 667.607 139.977 666.697 144.313 662.445 147.09 658.11 146.181L658.094 146.177C653.759 145.268 650.982 141.016 651.891 136.681 652.8 132.345 657.052 129.568 661.388 130.477ZM692.804 137.064 692.82 137.068C697.155 137.977 699.932 142.229 699.023 146.564 698.113 150.9 693.862 153.677 689.526 152.768L689.51 152.764C685.175 151.855 682.398 147.603 683.307 143.268 684.217 138.932 688.468 136.155 692.804 137.064ZM724.22 143.651 724.236 143.655C728.571 144.564 731.349 148.816 730.439 153.151 729.53 157.487 725.278 160.264 720.942 159.355L720.927 159.351C716.591 158.442 713.814 154.19 714.723 149.855 715.633 145.519 719.885 142.742 724.22 143.651ZM755.636 150.238 755.652 150.242C759.987 151.151 762.765 155.403 761.855 159.738 760.946 164.074 756.694 166.851 752.359 165.942L752.343 165.938C748.008 165.029 745.23 160.777 746.14 156.442 747.049 152.106 751.301 149.329 755.636 150.238ZM787.053 156.825 787.068 156.829C791.404 157.738 794.181 161.99 793.271 166.325 792.362 170.661 788.11 173.438 783.775 172.529L783.759 172.525C779.424 171.616 776.646 167.364 777.556 163.029 778.465 158.693 782.717 155.916 787.053 156.825ZM818.469 163.412 818.484 163.416C822.82 164.325 825.597 168.577 824.688 172.912 823.778 177.248 819.527 180.025 815.191 179.116L815.175 179.112C810.84 178.203 808.063 173.951 808.972 169.616 809.882 165.28 814.133 162.503 818.469 163.412ZM849.885 169.999 849.901 170.003C854.236 170.912 857.013 175.164 856.104 179.499 855.195 183.835 850.943 186.612 846.607 185.703L846.592 185.699C842.256 184.79 839.479 180.538 840.388 176.203 841.298 171.867 845.55 169.09 849.885 169.999ZM881.301 176.586 881.317 176.59C885.652 177.499 888.43 181.751 887.52 186.086 886.611 190.422 882.359 193.199 878.024 192.29L878.008 192.286C873.672 191.377 870.895 187.125 871.805 182.79 872.714 178.454 876.966 175.677 881.301 176.586ZM912.717 183.173 912.733 183.177C917.069 184.086 919.846 188.338 918.936 192.673 918.027 197.009 913.775 199.786 909.44 198.877L909.424 198.873C905.089 197.964 902.311 193.712 903.221 189.377 904.13 185.041 908.382 182.264 912.717 183.173ZM944.134 189.76 944.149 189.764C948.485 190.673 951.262 194.925 950.353 199.26 949.443 203.596 945.191 206.373 940.856 205.464L940.84 205.46C936.505 204.551 933.728 200.299 934.637 195.964 935.546 191.628 939.798 188.851 944.134 189.76ZM975.55 196.347 975.566 196.351C979.901 197.26 982.678 201.512 981.769 205.847 980.859 210.183 976.608 212.96 972.272 212.051L972.257 212.047C967.921 211.138 965.144 206.886 966.053 202.551 966.963 198.215 971.214 195.438 975.55 196.347ZM1006.97 202.934 1006.98 202.938C1011.32 203.847 1014.09 208.099 1013.19 212.434 1012.28 216.77 1008.02 219.547 1003.69 218.638L1003.67 218.634C999.337 217.725 996.56 213.473 997.469 209.138 998.379 204.802 1002.63 202.025 1006.97 202.934ZM1038.38 209.521 1038.4 209.525C1042.73 210.434 1045.51 214.686 1044.6 219.021 1043.69 223.357 1039.44 226.134 1035.1 225.225L1035.09 225.221C1030.75 224.312 1027.98 220.06 1028.89 215.725 1029.8 211.389 1034.05 208.612 1038.38 209.521ZM1069.8 216.108 1069.81 216.112C1074.15 217.021 1076.93 221.273 1076.02 225.608 1075.11 229.944 1070.86 232.721 1066.52 231.812L1066.51 231.808C1062.17 230.899 1059.39 226.647 1060.3 222.312 1061.21 217.976 1065.46 215.199 1069.8 216.108ZM1101.21 222.695 1101.23 222.699C1105.57 223.608 1108.34 227.86 1107.43 232.195 1106.52 236.531 1102.27 239.308 1097.94 238.399L1097.92 238.395C1093.59 237.486 1090.81 233.234 1091.72 228.899 1092.63 224.563 1096.88 221.786 1101.21 222.695ZM1132.63 229.282 1132.65 229.286C1136.98 230.195 1139.76 234.447 1138.85 238.782 1137.94 243.118 1133.69 245.895 1129.35 244.986L1129.34 244.982C1125 244.073 1122.22 239.821 1123.13 235.486 1124.04 231.15 1128.3 228.373 1132.63 229.282ZM1164.05 235.869 1164.06 235.873C1168.4 236.782 1171.18 241.034 1170.27 245.369 1169.36 249.705 1165.1 252.482 1160.77 251.573L1160.75 251.569C1156.42 250.66 1153.64 246.408 1154.55 242.073 1155.46 237.737 1159.71 234.96 1164.05 235.869ZM1195.46 242.456 1195.48 242.46C1199.81 243.369 1202.59 247.621 1201.68 251.956 1200.77 256.292 1196.52 259.069 1192.19 258.16L1192.17 258.156C1187.83 257.247 1185.06 252.995 1185.97 248.66 1186.88 244.324 1191.13 241.547 1195.46 242.456ZM1226.88 249.043 1226.9 249.047C1231.23 249.956 1234.01 254.208 1233.1 258.543 1232.19 262.879 1227.94 265.656 1223.6 264.747L1223.59 264.743C1219.25 263.834 1216.47 259.582 1217.38 255.247 1218.29 250.911 1222.54 248.134 1226.88 249.043ZM1258.3 255.63 1258.31 255.634C1262.65 256.543 1265.42 260.795 1264.51 265.13 1263.61 269.466 1259.35 272.243 1255.02 271.334L1255 271.33C1250.67 270.421 1247.89 266.169 1248.8 261.834 1249.71 257.498 1253.96 254.721 1258.3 255.63ZM1289.71 262.217 1289.73 262.221C1294.06 263.13 1296.84 267.382 1295.93 271.717 1295.02 276.053 1290.77 278.83 1286.43 277.921L1286.42 277.917C1282.08 277.008 1279.31 272.756 1280.22 268.421 1281.12 264.085 1285.38 261.308 1289.71 262.217ZM1321.13 268.804 1321.14 268.808C1325.48 269.717 1328.26 273.969 1327.35 278.304 1326.44 282.64 1322.19 285.417 1317.85 284.508L1317.83 284.504C1313.5 283.595 1310.72 279.343 1311.63 275.008 1312.54 270.672 1316.79 267.895 1321.13 268.804ZM1352.54 275.391 1352.56 275.395C1356.9 276.304 1359.67 280.556 1358.76 284.891 1357.85 289.227 1353.6 292.004 1349.27 291.095L1349.25 291.091C1344.92 290.182 1342.14 285.93 1343.05 281.595 1343.96 277.259 1348.21 274.482 1352.54 275.391ZM1383.96 281.978 1383.98 281.982C1388.31 282.891 1391.09 287.143 1390.18 291.478 1389.27 295.814 1385.02 298.591 1380.68 297.682L1380.67 297.678C1376.33 296.769 1373.55 292.517 1374.46 288.182 1375.37 283.846 1379.63 281.069 1383.96 281.978ZM1415.38 288.565 1415.39 288.569C1419.73 289.478 1422.51 293.73 1421.6 298.065 1420.69 302.401 1416.43 305.178 1412.1 304.269L1412.08 304.265C1407.75 303.356 1404.97 299.104 1405.88 294.769 1406.79 290.433 1411.04 287.656 1415.38 288.565ZM1446.79 295.152 1446.81 295.156C1451.14 296.065 1453.92 300.317 1453.01 304.652 1452.1 308.988 1447.85 311.765 1443.52 310.856L1443.5 310.852C1439.16 309.943 1436.39 305.691 1437.3 301.356 1438.21 297.02 1442.46 294.243 1446.79 295.152ZM1478.21 301.74 1478.23 301.743C1482.56 302.652 1485.34 306.904 1484.43 311.239 1483.52 315.575 1479.27 318.352 1474.93 317.443L1474.92 317.439C1470.58 316.53 1467.8 312.278 1468.71 307.943 1469.62 303.607 1473.87 300.83 1478.21 301.74ZM1509.63 308.327 1509.64 308.33C1513.98 309.239 1516.75 313.491 1515.84 317.826 1514.94 322.162 1510.68 324.939 1506.35 324.03L1506.33 324.026C1502 323.117 1499.22 318.865 1500.13 314.53 1501.04 310.194 1505.29 307.417 1509.63 308.327ZM1541.04 314.914 1541.06 314.917C1545.39 315.826 1548.17 320.078 1547.26 324.413 1546.35 328.749 1542.1 331.526 1537.76 330.617L1537.75 330.613C1533.41 329.704 1530.64 325.452 1531.55 321.117 1532.45 316.781 1536.71 314.004 1541.04 314.914ZM1572.46 321.501 1572.47 321.504C1576.81 322.413 1579.59 326.665 1578.68 331 1577.77 335.336 1573.52 338.113 1569.18 337.204L1569.16 337.2C1564.83 336.291 1562.05 332.039 1562.96 327.704 1563.87 323.368 1568.12 320.591 1572.46 321.501ZM1603.87 328.088 1603.89 328.091C1608.23 329 1611 333.252 1610.09 337.587 1609.18 341.923 1604.93 344.7 1600.6 343.791L1600.58 343.787C1596.25 342.878 1593.47 338.626 1594.38 334.291 1595.29 329.955 1599.54 327.178 1603.87 328.088ZM1635.29 334.675 1635.31 334.678C1639.64 335.587 1642.42 339.839 1641.51 344.174 1640.6 348.51 1636.35 351.287 1632.01 350.378L1632 350.374C1627.66 349.465 1624.88 345.213 1625.79 340.878 1626.7 336.542 1630.96 333.765 1635.29 334.675ZM1666.71 341.262 1666.72 341.265C1671.06 342.174 1673.84 346.426 1672.93 350.762 1672.02 355.097 1667.76 357.874 1663.43 356.965L1663.41 356.962C1659.08 356.052 1656.3 351.8 1657.21 347.465 1658.12 343.129 1662.37 340.352 1666.71 341.262ZM1698.12 347.849 1698.14 347.852C1702.47 348.761 1705.25 353.013 1704.34 357.349 1703.43 361.684 1699.18 364.461 1694.85 363.552L1694.83 363.549C1690.49 362.639 1687.72 358.387 1688.63 354.052 1689.54 349.716 1693.79 346.939 1698.12 347.849ZM1729.54 354.436 1729.55 354.439C1733.89 355.348 1736.67 359.6 1735.76 363.936 1734.85 368.271 1730.6 371.048 1726.26 370.139L1726.25 370.136C1721.91 369.226 1719.13 364.974 1720.04 360.639 1720.95 356.303 1725.2 353.526 1729.54 354.436ZM1760.96 361.023 1760.97 361.026C1765.31 361.935 1768.08 366.187 1767.17 370.523 1766.26 374.858 1762.01 377.635 1757.68 376.726L1757.66 376.723C1753.33 375.813 1750.55 371.561 1751.46 367.226 1752.37 362.89 1756.62 360.113 1760.96 361.023ZM1792.37 367.61 1792.39 367.613C1796.72 368.522 1799.5 372.774 1798.59 377.11 1797.68 381.445 1793.43 384.222 1789.09 383.313L1789.08 383.31C1784.74 382.4 1781.97 378.148 1782.88 373.813 1783.78 369.477 1788.04 366.7 1792.37 367.61ZM1823.79 374.197 1823.8 374.2C1828.14 375.109 1830.92 379.361 1830.01 383.697 1829.1 388.032 1824.85 390.809 1820.51 389.9L1820.49 389.897C1816.16 388.987 1813.38 384.735 1814.29 380.4 1815.2 376.064 1819.45 373.287 1823.79 374.197ZM1855.2 380.784 1855.22 380.787C1859.56 381.696 1862.33 385.948 1861.42 390.284 1860.51 394.619 1856.26 397.396 1851.93 396.487L1851.91 396.484C1847.58 395.574 1844.8 391.322 1845.71 386.987 1846.62 382.651 1850.87 379.874 1855.2 380.784ZM1886.62 387.371 1886.64 387.374C1890.97 388.283 1893.75 392.535 1892.84 396.871 1891.93 401.206 1887.68 403.983 1883.34 403.074L1883.33 403.071C1878.99 402.161 1876.21 397.909 1877.12 393.574 1878.03 389.238 1882.28 386.461 1886.62 387.371ZM1918.04 393.958 1918.05 393.961C1922.39 394.87 1925.16 399.122 1924.26 403.458 1923.35 407.793 1919.09 410.57 1914.76 409.661L1914.74 409.658C1910.41 408.748 1907.63 404.496 1908.54 400.161 1909.45 395.826 1913.7 393.048 1918.04 393.958ZM1949.45 400.545 1949.47 400.548C1953.8 401.457 1956.58 405.709 1955.67 410.045 1954.76 414.38 1950.51 417.157 1946.18 416.248L1946.16 416.245C1941.82 415.335 1939.05 411.083 1939.96 406.748 1940.87 402.413 1945.12 399.635 1949.45 400.545ZM1980.87 407.132 1980.88 407.135C1985.22 408.044 1988 412.296 1987.09 416.632 1986.18 420.967 1981.93 423.744 1977.59 422.835L1977.58 422.832C1973.24 421.922 1970.46 417.67 1971.37 413.335 1972.28 409 1976.53 406.222 1980.87 407.132ZM2012.29 413.719 2012.3 413.722C2016.64 414.631 2019.41 418.883 2018.5 423.219 2017.59 427.554 2013.34 430.331 2009.01 429.422L2008.99 429.419C2004.66 428.509 2001.88 424.257 2002.79 419.922 2003.7 415.587 2007.95 412.809 2012.29 413.719ZM2043.7 420.306 2043.72 420.309C2048.05 421.218 2050.83 425.47 2049.92 429.806 2049.01 434.141 2044.76 436.918 2040.42 436.009L2040.41 436.006C2036.07 435.096 2033.3 430.844 2034.2 426.509 2035.11 422.174 2039.37 419.396 2043.7 420.306ZM2075.12 426.893 2075.13 426.896C2079.47 427.805 2082.25 432.057 2081.34 436.393 2080.43 440.728 2076.18 443.505 2071.84 442.596L2071.82 442.593C2067.49 441.683 2064.71 437.431 2065.62 433.096 2066.53 428.761 2070.78 425.983 2075.12 426.893ZM2106.53 433.48 2106.55 433.483C2110.89 434.392 2113.66 438.644 2112.75 442.98 2111.84 447.315 2107.59 450.092 2103.26 449.183L2103.24 449.18C2098.91 448.27 2096.13 444.018 2097.04 439.683 2097.95 435.348 2102.2 432.57 2106.53 433.48ZM2137.95 440.067 2137.97 440.07C2142.3 440.979 2145.08 445.231 2144.17 449.567 2143.26 453.902 2139.01 456.679 2134.67 455.77L2134.66 455.767C2130.32 454.857 2127.54 450.605 2128.45 446.27 2129.36 441.935 2133.61 439.157 2137.95 440.067ZM2169.37 446.654 2169.38 446.657C2173.72 447.566 2176.49 451.818 2175.59 456.154 2174.68 460.489 2170.42 463.266 2166.09 462.357L2166.07 462.354C2161.74 461.444 2158.96 457.192 2159.87 452.857 2160.78 448.522 2165.03 445.744 2169.37 446.654ZM2200.78 453.241 2200.8 453.244C2205.13 454.153 2207.91 458.405 2207 462.741 2206.09 467.076 2201.84 469.853 2197.5 468.944L2197.49 468.941C2193.15 468.031 2190.38 463.779 2191.29 459.444 2192.2 455.109 2196.45 452.331 2200.78 453.241ZM2232.2 459.828 2232.21 459.831C2236.55 460.74 2239.33 464.992 2238.42 469.328 2237.51 473.663 2233.26 476.44 2228.92 475.531L2228.91 475.528C2224.57 474.618 2221.79 470.366 2222.7 466.031 2223.61 461.696 2227.86 458.918 2232.2 459.828ZM2263.61 466.415 2263.63 466.418C2267.97 467.327 2270.74 471.579 2269.83 475.915 2268.92 480.25 2264.67 483.027 2260.34 482.118L2260.32 482.115C2255.99 481.205 2253.21 476.953 2254.12 472.618 2255.03 468.283 2259.28 465.505 2263.61 466.415ZM2295.03 473.002 2295.05 473.005C2299.38 473.914 2302.16 478.166 2301.25 482.502 2300.34 486.837 2296.09 489.614 2291.75 488.705L2291.74 488.702C2287.4 487.792 2284.62 483.54 2285.53 479.205 2286.44 474.87 2290.7 472.092 2295.03 473.002ZM2326.45 479.589 2326.46 479.592C2330.8 480.501 2333.58 484.753 2332.67 489.089 2331.76 493.424 2327.51 496.201 2323.17 495.292L2323.15 495.289C2318.82 494.379 2316.04 490.127 2316.95 485.792 2317.86 481.457 2322.11 478.679 2326.45 479.589ZM2357.86 486.176 2357.88 486.179C2362.21 487.088 2364.99 491.34 2364.08 495.676 2363.17 500.011 2358.92 502.788 2354.59 501.879L2354.57 501.876C2350.23 500.966 2347.46 496.714 2348.37 492.379 2349.28 488.044 2353.53 485.266 2357.86 486.176ZM2389.28 492.763 2389.3 492.766C2393.63 493.675 2396.41 497.927 2395.5 502.263 2394.59 506.598 2390.34 509.375 2386 508.466L2385.99 508.463C2381.65 507.553 2378.87 503.301 2379.78 498.966 2380.69 494.631 2384.94 491.853 2389.28 492.763ZM2420.7 499.35 2420.71 499.353C2425.05 500.262 2427.82 504.514 2426.92 508.85 2426.01 513.185 2421.75 515.962 2417.42 515.053L2417.4 515.05C2413.07 514.14 2410.29 509.888 2411.2 505.553 2412.11 501.218 2416.36 498.44 2420.7 499.35ZM2452.11 505.937 2452.13 505.94C2456.46 506.849 2459.24 511.101 2458.33 515.437 2457.42 519.772 2453.17 522.549 2448.83 521.64L2448.82 521.637C2444.48 520.727 2441.71 516.475 2442.62 512.14 2443.53 507.805 2447.78 505.027 2452.11 505.937ZM2483.53 512.524 2483.54 512.527C2487.88 513.437 2490.66 517.688 2489.75 522.024 2488.84 526.359 2484.59 529.136 2480.25 528.227L2480.24 528.224C2475.9 527.314 2473.12 523.062 2474.03 518.727 2474.94 514.392 2479.19 511.614 2483.53 512.524ZM2514.94 519.111 2514.96 519.114C2519.3 520.023 2522.07 524.275 2521.16 528.611 2520.25 532.946 2516 535.723 2511.67 534.814L2511.65 534.811C2507.32 533.901 2504.54 529.649 2505.45 525.314 2506.36 520.979 2510.61 518.201 2514.94 519.111ZM2546.36 525.698 2546.38 525.701C2550.71 526.611 2553.49 530.862 2552.58 535.198 2551.67 539.533 2547.42 542.31 2543.08 541.401L2543.07 541.398C2538.73 540.488 2535.95 536.237 2536.86 531.901 2537.77 527.566 2542.03 524.788 2546.36 525.698ZM2577.78 532.285 2577.79 532.288C2582.13 533.198 2584.91 537.449 2584 541.785 2583.09 546.12 2578.83 548.897 2574.5 547.988L2574.48 547.985C2570.15 547.075 2567.37 542.824 2568.28 538.488 2569.19 534.153 2573.44 531.375 2577.78 532.285ZM2609.19 538.872 2609.21 538.875C2613.54 539.785 2616.32 544.036 2615.41 548.372 2614.5 552.707 2610.25 555.484 2605.92 554.575L2605.9 554.572C2601.56 553.662 2598.79 549.411 2599.7 545.075 2600.61 540.74 2604.86 537.962 2609.19 538.872ZM2640.61 545.459 2640.63 545.462C2644.96 546.372 2647.74 550.623 2646.83 554.959 2645.92 559.294 2641.67 562.071 2637.33 561.162L2637.32 561.159C2632.98 560.249 2630.2 555.998 2631.11 551.662 2632.02 547.327 2636.27 544.549 2640.61 545.459ZM2672.03 552.046 2672.04 552.049C2676.38 552.959 2679.15 557.21 2678.24 561.546 2677.34 565.881 2673.08 568.659 2668.75 567.749L2668.73 567.746C2664.4 566.836 2661.62 562.585 2662.53 558.249 2663.44 553.914 2667.69 551.136 2672.03 552.046ZM2703.44 558.633 2703.46 558.636C2707.79 559.546 2710.57 563.797 2709.66 568.133 2708.75 572.468 2704.5 575.245 2700.16 574.336L2700.15 574.333C2695.81 573.423 2693.04 569.172 2693.95 564.836 2694.85 560.501 2699.11 557.723 2703.44 558.633ZM2734.86 565.22 2734.87 565.223C2739.21 566.133 2741.99 570.384 2741.08 574.72 2740.17 579.055 2735.92 581.833 2731.58 580.923L2731.56 580.92C2727.23 580.01 2724.45 575.759 2725.36 571.423 2726.27 567.088 2730.52 564.31 2734.86 565.22ZM2766.27 571.807 2766.29 571.81C2770.63 572.72 2773.4 576.971 2772.49 581.307 2771.58 585.642 2767.33 588.419 2763 587.51L2762.98 587.507C2758.65 586.597 2755.87 582.346 2756.78 578.01 2757.69 573.675 2761.94 570.897 2766.27 571.807ZM2797.69 578.394 2797.71 578.397C2802.04 579.307 2804.82 583.558 2803.91 587.894 2803 592.229 2798.75 595.007 2794.41 594.097L2794.4 594.094C2790.06 593.184 2787.28 588.933 2788.19 584.597 2789.1 580.262 2793.36 577.484 2797.69 578.394ZM2829.11 584.981 2829.12 584.984C2833.46 585.894 2836.24 590.145 2835.33 594.481 2834.42 598.816 2830.16 601.594 2825.83 600.684L2825.81 600.681C2821.48 599.771 2818.7 595.52 2819.61 591.184 2820.52 586.849 2824.77 584.071 2829.11 584.981ZM2860.52 591.568 2860.54 591.571C2864.87 592.481 2867.65 596.732 2866.74 601.068 2865.83 605.403 2861.58 608.181 2857.25 607.271L2857.23 607.268C2852.89 606.358 2850.12 602.107 2851.03 597.771 2851.94 593.436 2856.19 590.658 2860.52 591.568ZM2891.94 598.155 2891.96 598.158C2896.29 599.068 2899.07 603.319 2898.16 607.655 2897.25 611.99 2893 614.768 2888.66 613.858L2888.65 613.855C2884.31 612.945 2881.53 608.694 2882.44 604.358 2883.35 600.023 2887.6 597.245 2891.94 598.155ZM2923.36 604.742 2923.37 604.745C2927.71 605.655 2930.48 609.906 2929.57 614.242 2928.67 618.577 2924.41 621.355 2920.08 620.445L2920.06 620.442C2915.73 619.532 2912.95 615.281 2913.86 610.945 2914.77 606.61 2919.02 603.832 2923.36 604.742ZM2954.77 611.329 2954.79 611.332C2959.12 612.242 2961.9 616.493 2960.99 620.829 2960.08 625.164 2955.83 627.942 2951.49 627.032L2951.48 627.029C2947.14 626.119 2944.37 621.868 2945.28 617.532 2946.18 613.197 2950.44 610.419 2954.77 611.329ZM2986.19 617.916 2986.2 617.919C2990.54 618.829 2993.32 623.08 2992.41 627.416 2991.5 631.751 2987.25 634.529 2982.91 633.619L2982.89 633.616C2978.56 632.706 2975.78 628.455 2976.69 624.119 2977.6 619.784 2981.85 617.006 2986.19 617.916ZM3017.6 624.503 3017.62 624.506C3021.96 625.416 3024.73 629.667 3023.82 634.003 3022.91 638.338 3018.66 641.116 3014.33 640.206L3014.31 640.203C3009.98 639.293 3007.2 635.042 3008.11 630.706 3009.02 626.371 3013.27 623.593 3017.6 624.503ZM3049 631.086 3049.02 631.089C3053.36 631.989 3056.14 636.234 3055.24 640.572 3054.34 644.909 3050.1 647.696 3045.76 646.797L3045.75 646.794C3041.41 645.894 3038.62 641.649 3039.52 637.311 3040.42 632.974 3044.67 630.187 3049 631.086ZM3080.42 637.673 3080.43 637.676C3084.77 638.576 3087.56 642.821 3086.66 647.159 3085.76 651.496 3081.52 654.283 3077.18 653.384L3077.16 653.381C3072.82 652.481 3070.04 648.236 3070.94 643.898 3071.84 639.561 3076.08 636.774 3080.42 637.673ZM3111.84 644.26 3111.85 644.263C3116.19 645.163 3118.98 649.409 3118.08 653.746 3117.18 658.083 3112.93 660.87 3108.59 659.971L3108.58 659.968C3104.24 659.068 3101.45 654.823 3102.35 650.485 3103.25 646.148 3107.5 643.361 3111.84 644.26ZM3143.25 650.847 3143.27 650.85C3147.61 651.75 3150.39 655.995 3149.49 660.333 3148.59 664.67 3144.35 667.457 3140.01 666.558L3139.99 666.555C3135.66 665.655 3132.87 661.41 3133.77 657.072 3134.67 652.735 3138.91 649.948 3143.25 650.847ZM3174.67 657.434 3174.68 657.438C3179.02 658.337 3181.81 662.583 3180.91 666.92 3180.01 671.257 3175.76 674.044 3171.43 673.145L3171.41 673.142C3167.07 672.242 3164.29 667.997 3165.19 663.659 3166.09 659.322 3170.33 656.535 3174.67 657.434ZM3206.08 664.021 3206.1 664.024C3210.44 664.924 3213.22 669.169 3212.33 673.507 3211.43 677.844 3207.18 680.631 3202.84 679.732L3202.83 679.729C3198.49 678.829 3195.7 674.584 3196.6 670.246 3197.5 665.909 3201.75 663.122 3206.08 664.021ZM3237.5 670.608 3237.52 670.612C3241.85 671.511 3244.64 675.757 3243.74 680.094 3242.84 684.431 3238.6 687.219 3234.26 686.319L3234.24 686.316C3229.91 685.416 3227.12 681.171 3228.02 676.833 3228.92 672.496 3233.16 669.709 3237.5 670.608ZM3268.92 677.195 3268.93 677.198C3273.27 678.098 3276.06 682.344 3275.16 686.681 3274.26 691.018 3270.01 693.805 3265.68 692.906L3265.66 692.903C3261.32 692.003 3258.54 687.758 3259.44 683.42 3260.33 679.083 3264.58 676.296 3268.92 677.195ZM3300.33 683.782 3300.35 683.786C3304.69 684.685 3307.47 688.931 3306.57 693.268 3305.68 697.605 3301.43 700.393 3297.09 699.493L3297.08 699.49C3292.74 698.59 3289.95 694.345 3290.85 690.007 3291.75 685.67 3296 682.883 3300.33 683.782ZM3331.75 690.369 3331.77 690.372C3336.1 691.272 3338.89 695.518 3337.99 699.855 3337.09 704.193 3332.85 706.98 3328.51 706.08L3328.49 706.077C3324.16 705.177 3321.37 700.932 3322.27 696.594 3323.17 692.257 3327.41 689.47 3331.75 690.369ZM3363.17 696.956 3363.18 696.96C3367.52 697.859 3370.31 702.105 3369.41 706.442 3368.51 710.779 3364.26 713.567 3359.93 712.667L3359.91 712.664C3355.57 711.764 3352.78 707.519 3353.68 703.181 3354.58 698.844 3358.83 696.057 3363.17 696.956ZM3394.58 703.543 3394.6 703.547C3398.94 704.446 3401.72 708.692 3400.82 713.029 3399.92 717.367 3395.68 720.154 3391.34 719.254L3391.33 719.251C3386.99 718.351 3384.2 714.106 3385.1 709.768 3386 705.431 3390.25 702.644 3394.58 703.543ZM3426 710.13 3426.02 710.134C3430.35 711.033 3433.14 715.279 3432.24 719.616 3431.34 723.953 3427.1 726.741 3422.76 725.841L3422.74 725.838C3418.4 724.938 3415.62 720.693 3416.52 716.355 3417.42 712.018 3421.66 709.231 3426 710.13ZM3457.42 716.717 3457.43 716.721C3461.77 717.62 3464.56 721.866 3463.66 726.203 3462.76 730.541 3458.51 733.328 3454.17 732.428L3454.16 732.425C3449.82 731.525 3447.03 727.28 3447.93 722.942 3448.83 718.605 3453.08 715.818 3457.42 716.717ZM3488.83 723.304 3488.85 723.308C3493.19 724.207 3495.97 728.453 3495.07 732.79 3494.17 737.128 3489.93 739.915 3485.59 739.015L3485.57 739.012C3481.24 738.112 3478.45 733.867 3479.35 729.529 3480.25 725.192 3484.49 722.405 3488.83 723.304ZM3520.25 729.891 3520.26 729.895C3524.6 730.794 3527.39 735.04 3526.49 739.377 3525.59 743.715 3521.34 746.502 3517.01 745.602L3516.99 745.599C3512.65 744.699 3509.87 740.454 3510.77 736.116 3511.67 731.779 3515.91 728.992 3520.25 729.891ZM3551.66 736.478 3551.68 736.482C3556.02 737.381 3558.8 741.627 3557.91 745.964 3557.01 750.302 3552.76 753.089 3548.42 752.189L3548.41 752.186C3544.07 751.286 3541.28 747.041 3542.18 742.703 3543.08 738.366 3547.33 735.579 3551.66 736.478ZM3583.08 743.065 3583.1 743.069C3587.43 743.968 3590.22 748.214 3589.32 752.551 3588.42 756.889 3584.18 759.676 3579.84 758.776L3579.82 758.773C3575.49 757.873 3572.7 753.628 3573.6 749.29 3574.5 744.953 3578.74 742.166 3583.08 743.065ZM3614.48 749.648 3614.49 749.651C3618.83 750.539 3621.63 754.777 3620.74 759.117 3619.85 763.457 3615.62 766.255 3611.28 765.368L3611.26 765.364C3606.92 764.477 3604.12 760.239 3605.01 755.899 3605.9 751.559 3610.14 748.76 3614.48 749.648ZM3645.89 756.235 3645.91 756.238C3650.25 757.126 3653.05 761.364 3652.16 765.704 3651.27 770.044 3647.03 772.842 3642.69 771.955L3642.68 771.951C3638.34 771.064 3635.54 766.826 3636.43 762.486 3637.31 758.146 3641.55 755.347 3645.89 756.235ZM3677.31 762.822 3677.32 762.825C3681.66 763.713 3684.46 767.951 3683.57 772.291 3682.69 776.631 3678.45 779.429 3674.11 778.542L3674.09 778.538C3669.75 777.651 3666.95 773.413 3667.84 769.073 3668.73 764.733 3672.97 761.934 3677.31 762.822ZM3708.72 769.409 3708.74 769.412C3713.08 770.3 3715.88 774.538 3714.99 778.878 3714.1 783.218 3709.86 786.016 3705.52 785.129L3705.51 785.125C3701.17 784.238 3698.37 780 3699.26 775.66 3700.15 771.32 3704.38 768.521 3708.72 769.409ZM3740.14 775.996 3740.16 775.999C3744.5 776.887 3747.29 781.125 3746.41 785.465 3745.52 789.805 3741.28 792.603 3736.94 791.716L3736.92 791.712C3732.59 790.825 3729.79 786.587 3730.67 782.247 3731.56 777.907 3735.8 775.108 3740.14 775.996ZM3771.56 782.583 3771.57 782.586C3775.91 783.474 3778.71 787.712 3777.82 792.052 3776.93 796.392 3772.7 799.19 3768.36 798.303L3768.34 798.299C3764 797.412 3761.2 793.174 3762.09 788.834 3762.98 784.494 3767.22 781.695 3771.56 782.583ZM3802.97 789.17 3802.99 789.173C3807.33 790.061 3810.13 794.299 3809.24 798.639 3808.35 802.979 3804.11 805.777 3799.77 804.89L3799.76 804.886C3795.42 803.999 3792.62 799.761 3793.51 795.421 3794.39 791.081 3798.63 788.282 3802.97 789.17ZM3834.39 795.757 3834.4 795.76C3838.74 796.648 3841.54 800.886 3840.65 805.226 3839.77 809.566 3835.53 812.364 3831.19 811.477L3831.17 811.473C3826.83 810.586 3824.03 806.348 3824.92 802.008 3825.81 797.668 3830.05 794.869 3834.39 795.757ZM3865.8 802.344 3865.82 802.347C3870.16 803.235 3872.96 807.473 3872.07 811.813 3871.18 816.153 3866.95 818.952 3862.6 818.064L3862.59 818.061C3858.25 817.173 3855.45 812.935 3856.34 808.595 3857.23 804.255 3861.46 801.457 3865.8 802.344Z" fill="#5DCEAF" fill-rule="nonzero" fill-opacity="1" transform="matrix(1 0 0 -1 1024 3785)"/></g><g clip-path="url(#clip29)"><text fill="#595959" fill-opacity="1" font-family="Calibri,Calibri_MSFontService,sans-serif" font-style="normal" font-variant="normal" font-weight="700" font-stretch="normal" font-size="110" text-anchor="start" direction="ltr" writing-mode="lr-tb" unicode-bidi="normal" text-decoration="none" transform="matrix(1 0 0 1 3176.01 2500)">y = 2E</text></g><g clip-path="url(#clip30)"><text fill="#595959" fill-opacity="1" font-family="Calibri,Calibri_MSFontService,sans-serif" font-style="normal" font-variant="normal" font-weight="700" font-stretch="normal" font-size="110" text-anchor="start" direction="ltr" writing-mode="lr-tb" unicode-bidi="normal" text-decoration="none" transform="matrix(1 0 0 1 3439.87 2500)">-</text></g><g clip-path="url(#clip31)"><text fill="#595959" fill-opacity="1" font-family="Calibri,Calibri_MSFontService,sans-serif" font-style="normal" font-variant="normal" font-weight="700" font-stretch="normal" font-size="110" text-anchor="start" direction="ltr" writing-mode="lr-tb" unicode-bidi="normal" text-decoration="none" transform="matrix(1 0 0 1 3473.56 2500)">05x </text></g><g clip-path="url(#clip32)"><text fill="#595959" fill-opacity="1" font-family="Calibri,Calibri_MSFontService,sans-serif" font-style="normal" font-variant="normal" font-weight="700" font-stretch="normal" font-size="110" text-anchor="start" direction="ltr" writing-mode="lr-tb" unicode-bidi="normal" text-decoration="none" transform="matrix(1 0 0 1 3660.47 2500)">-</text></g><g clip-path="url(#clip33)"><text fill="#595959" fill-opacity="1" font-family="Calibri,Calibri_MSFontService,sans-serif" font-style="normal" font-variant="normal" font-weight="700" font-stretch="normal" font-size="110" text-anchor="start" direction="ltr" writing-mode="lr-tb" unicode-bidi="normal" text-decoration="none" transform="matrix(1 0 0 1 3719.02 2500)">0.0003</text></g><g clip-path="url(#clip34)"><text fill="#595959" fill-opacity="1" font-family="Calibri,Calibri_MSFontService,sans-serif" font-style="normal" font-variant="normal" font-weight="700" font-stretch="normal" font-size="110" text-anchor="start" direction="ltr" writing-mode="lr-tb" unicode-bidi="normal" text-decoration="none" transform="matrix(1 0 0 1 3373.6 2634)">R = 0.325</text></g><g clip-path="url(#clip35)"><text fill="#595959" fill-opacity="1" font-family="Calibri,Calibri_MSFontService,sans-serif" font-style="normal" font-variant="normal" font-weight="700" font-stretch="normal" font-size="110" text-anchor="start" direction="ltr" writing-mode="lr-tb" unicode-bidi="normal" text-decoration="none" transform="matrix(1 0 0 1 311.244 4889)">-0.0005</text></g><g clip-path="url(#clip36)"><text fill="#595959" fill-opacity="1" font-family="Calibri,Calibri_MSFontService,sans-serif" font-style="normal" font-variant="normal" font-weight="700" font-stretch="normal" font-size="110" text-anchor="start" direction="ltr" writing-mode="lr-tb" unicode-bidi="normal" text-decoration="none" transform="matrix(1 0 0 1 255.488 4607)">-0.00045</text></g><g clip-path="url(#clip37)"><text fill="#595959" fill-opacity="1" font-family="Calibri,Calibri_MSFontService,sans-serif" font-style="normal" font-variant="normal" font-weight="700" font-stretch="normal" font-size="110" text-anchor="start" direction="ltr" writing-mode="lr-tb" unicode-bidi="normal" text-decoration="none" transform="matrix(1 0 0 1 311.244 4325)">-0.0004</text></g><g clip-path="url(#clip38)"><text fill="#595959" fill-opacity="1" font-family="Calibri,Calibri_MSFontService,sans-serif" font-style="normal" font-variant="normal" font-weight="700" font-stretch="normal" font-size="110" text-anchor="start" direction="ltr" writing-mode="lr-tb" unicode-bidi="normal" text-decoration="none" transform="matrix(1 0 0 1 255.488 4043)">-0.00035</text></g><g clip-path="url(#clip39)"><text fill="#595959" fill-opacity="1" font-family="Calibri,Calibri_MSFontService,sans-serif" font-style="normal" font-variant="normal" font-weight="700" font-stretch="normal" font-size="110" text-anchor="start" direction="ltr" writing-mode="lr-tb" unicode-bidi="normal" text-decoration="none" transform="matrix(1 0 0 1 311.244 3761)">-0.0003</text></g><g clip-path="url(#clip40)"><text fill="#595959" fill-opacity="1" font-family="Calibri,Calibri_MSFontService,sans-serif" font-style="normal" font-variant="normal" font-weight="700" font-stretch="normal" font-size="110" text-anchor="start" direction="ltr" writing-mode="lr-tb" unicode-bidi="normal" text-decoration="none" transform="matrix(1 0 0 1 255.488 3479)">-0.00025</text></g><g clip-path="url(#clip41)"><text fill="#595959" fill-opacity="1" font-family="Calibri,Calibri_MSFontService,sans-serif" font-style="normal" font-variant="normal" font-weight="700" font-stretch="normal" font-size="110" text-anchor="start" direction="ltr" writing-mode="lr-tb" unicode-bidi="normal" text-decoration="none" transform="matrix(1 0 0 1 311.244 3197)">-0.0002</text></g><g clip-path="url(#clip42)"><text fill="#595959" fill-opacity="1" font-family="Calibri,Calibri_MSFontService,sans-serif" font-style="normal" font-variant="normal" font-weight="700" font-stretch="normal" font-size="110" text-anchor="start" direction="ltr" writing-mode="lr-tb" unicode-bidi="normal" text-decoration="none" transform="matrix(1 0 0 1 255.488 2915)">-0.00015</text></g><g clip-path="url(#clip43)"><text fill="#595959" fill-opacity="1" font-family="Calibri,Calibri_MSFontService,sans-serif" font-style="normal" font-variant="normal" font-weight="700" font-stretch="normal" font-size="110" text-anchor="start" direction="ltr" writing-mode="lr-tb" unicode-bidi="normal" text-decoration="none" transform="matrix(1 0 0 1 311.244 2633)">-0.0001</text></g><g clip-path="url(#clip44)"><text fill="#595959" fill-opacity="1" font-family="Calibri,Calibri_MSFontService,sans-serif" font-style="normal" font-variant="normal" font-weight="700" font-stretch="normal" font-size="110" text-anchor="start" direction="ltr" writing-mode="lr-tb" unicode-bidi="normal" text-decoration="none" transform="matrix(1 0 0 1 255.488 2351)">-0.00005</text></g><g clip-path="url(#clip45)"><text fill="#595959" fill-opacity="1" font-family="Calibri,Calibri_MSFontService,sans-serif" font-style="normal" font-variant="normal" font-weight="700" font-stretch="normal" font-size="110" text-anchor="start" direction="ltr" writing-mode="lr-tb" unicode-bidi="normal" text-decoration="none" transform="matrix(1 0 0 1 597.336 2069)">0</text></g><g clip-path="url(#clip46)"><text fill="#595959" fill-opacity="1" font-family="Calibri,Calibri_MSFontService,sans-serif" font-style="normal" font-variant="normal" font-weight="700" font-stretch="normal" font-size="110" text-anchor="start" direction="ltr" writing-mode="lr-tb" unicode-bidi="normal" text-decoration="none" transform="matrix(1 0 0 1 727.258 2209)">0</text></g><g clip-path="url(#clip47)"><text fill="#595959" fill-opacity="1" font-family="Calibri,Calibri_MSFontService,sans-serif" font-style="normal" font-variant="normal" font-weight="700" font-stretch="normal" font-size="110" text-anchor="start" direction="ltr" writing-mode="lr-tb" unicode-bidi="normal" text-decoration="none" transform="matrix(1 0 0 1 1216.79 2209)">1</text></g><g clip-path="url(#clip48)"><text fill="#595959" fill-opacity="1" font-family="Calibri,Calibri_MSFontService,sans-serif" font-style="normal" font-variant="normal" font-weight="700" font-stretch="normal" font-size="110" text-anchor="start" direction="ltr" writing-mode="lr-tb" unicode-bidi="normal" text-decoration="none" transform="matrix(1 0 0 1 1706.32 2209)">2</text></g><g clip-path="url(#clip49)"><text fill="#595959" fill-opacity="1" font-family="Calibri,Calibri_MSFontService,sans-serif" font-style="normal" font-variant="normal" font-weight="700" font-stretch="normal" font-size="110" text-anchor="start" direction="ltr" writing-mode="lr-tb" unicode-bidi="normal" text-decoration="none" transform="matrix(1 0 0 1 2195.86 2209)">3</text></g><g clip-path="url(#clip50)"><text fill="#595959" fill-opacity="1" font-family="Calibri,Calibri_MSFontService,sans-serif" font-style="normal" font-variant="normal" font-weight="700" font-stretch="normal" font-size="110" text-anchor="start" direction="ltr" writing-mode="lr-tb" unicode-bidi="normal" text-decoration="none" transform="matrix(1 0 0 1 2685.39 2209)">4</text></g><g clip-path="url(#clip51)"><text fill="#595959" fill-opacity="1" font-family="Calibri,Calibri_MSFontService,sans-serif" font-style="normal" font-variant="normal" font-weight="700" font-stretch="normal" font-size="110" text-anchor="start" direction="ltr" writing-mode="lr-tb" unicode-bidi="normal" text-decoration="none" transform="matrix(1 0 0 1 3174.92 2209)">5</text></g><g clip-path="url(#clip52)"><text fill="#595959" fill-opacity="1" font-family="Calibri,Calibri_MSFontService,sans-serif" font-style="normal" font-variant="normal" font-weight="700" font-stretch="normal" font-size="110" text-anchor="start" direction="ltr" writing-mode="lr-tb" unicode-bidi="normal" text-decoration="none" transform="matrix(1 0 0 1 3664.46 2209)">6</text></g><g clip-path="url(#clip53)"><text fill="#595959" fill-opacity="1" font-family="Calibri,Calibri_MSFontService,sans-serif" font-style="normal" font-variant="normal" font-weight="700" font-stretch="normal" font-size="110" text-anchor="start" direction="ltr" writing-mode="lr-tb" unicode-bidi="normal" text-decoration="none" transform="matrix(1 0 0 1 4153.99 2209)">7</text></g><g clip-path="url(#clip54)"><text fill="#595959" fill-opacity="1" font-family="Calibri,Calibri_MSFontService,sans-serif" font-style="normal" font-variant="normal" font-weight="700" font-stretch="normal" font-size="110" text-anchor="start" direction="ltr" writing-mode="lr-tb" unicode-bidi="normal" text-decoration="none" transform="matrix(1 0 0 1 4643.52 2209)">8</text></g><g clip-path="url(#clip55)"><text fill="#595959" fill-opacity="1" font-family="Calibri,Calibri_MSFontService,sans-serif" font-style="normal" font-variant="normal" font-weight="700" font-stretch="normal" font-size="110" text-anchor="start" direction="ltr" writing-mode="lr-tb" unicode-bidi="normal" text-decoration="none" transform="matrix(1 0 0 1 5133.06 2209)">9</text></g><g clip-path="url(#clip56)"><text fill="#595959" fill-opacity="1" font-family="Calibri,Calibri_MSFontService,sans-serif" font-style="normal" font-variant="normal" font-weight="700" font-stretch="normal" font-size="110" text-anchor="start" direction="ltr" writing-mode="lr-tb" unicode-bidi="normal" text-decoration="none" transform="matrix(6.12323e-17 -1 1 6.12323e-17 212.473 4456)">Reported oxygen relaxivity (r1) in s</text></g><g clip-path="url(#clip57)"><text fill="#595959" fill-opacity="1" font-family="Calibri,Calibri_MSFontService,sans-serif" font-style="normal" font-variant="normal" font-weight="700" font-stretch="normal" font-size="110" text-anchor="start" direction="ltr" writing-mode="lr-tb" unicode-bidi="normal" text-decoration="none" transform="matrix(6.12323e-17 -1 1 6.12323e-17 212.473 2870)">-</text></g><g clip-path="url(#clip58)"><text fill="#595959" fill-opacity="1" font-family="Calibri,Calibri_MSFontService,sans-serif" font-style="normal" font-variant="normal" font-weight="700" font-stretch="normal" font-size="110" text-anchor="start" direction="ltr" writing-mode="lr-tb" unicode-bidi="normal" text-decoration="none" transform="matrix(6.12323e-17 -1 1 6.12323e-17 212.473 2837)">1/mmHg</text></g><g clip-path="url(#clip59)"><text fill="#595959" fill-opacity="1" font-family="Calibri,Calibri_MSFontService,sans-serif" font-style="normal" font-variant="normal" font-weight="700" font-stretch="normal" font-size="110" text-anchor="start" direction="ltr" writing-mode="lr-tb" unicode-bidi="normal" text-decoration="none" transform="matrix(1 0 0 1 2282.75 4967)">MRI B0 Field Strength in Tesla</text></g><g clip-path="url(#clip60)"><text fill="#595959" fill-opacity="1" font-family="Calibri,Calibri_MSFontService,sans-serif" font-style="normal" font-variant="normal" font-weight="700" font-stretch="normal" font-size="132" text-anchor="start" direction="ltr" writing-mode="lr-tb" unicode-bidi="normal" text-decoration="none" transform="matrix(1 0 0 1 1432.07 1903)">Oxygen Relaxivity vs Field Strength </text></g><g clip-path="url(#clip61)"><text fill="#595959" fill-opacity="1" font-family="Calibri,Calibri_MSFontService,sans-serif" font-style="normal" font-variant="normal" font-weight="700" font-stretch="normal" font-size="132" text-anchor="start" direction="ltr" writing-mode="lr-tb" unicode-bidi="normal" text-decoration="none" transform="matrix(1 0 0 1 3368.02 1903)">-</text></g><g clip-path="url(#clip62)"><text fill="#595959" fill-opacity="1" font-family="Calibri,Calibri_MSFontService,sans-serif" font-style="normal" font-variant="normal" font-weight="700" font-stretch="normal" font-size="132" text-anchor="start" direction="ltr" writing-mode="lr-tb" unicode-bidi="normal" text-decoration="none" transform="matrix(1 0 0 1 3438.26 1903)">All data</text></g><rect x="50.5" y="1742.5" width="5189" height="3311" stroke="#D9D9D9" stroke-width="3.4375" stroke-linecap="butt" stroke-linejoin="round" stroke-miterlimit="10" stroke-opacity="1" fill="none"/></g></svg>